<svg width="300" height="297" viewBox="0 0 300 297" fill="none" xmlns="http://www.w3.org/2000/svg">
<path d="M222 211.2L220.8 209.7C216.9 205.2 209.7 196.5 208.2 194.1C202.2 183.3 201.3 175.5 199.8 164.7C198.3 153.9 196.5 140.7 189 119.7C188.1 117.3 180.9 99.3001 172.8 82.5001C168 72.6001 163.8 64.8001 160.2 59.7001C155.4 52.5001 151.8 49.5001 148.5 49.8001C145.2 49.2001 141.6 52.2001 136.8 59.7001C133.2 65.1001 129 72.9001 124.2 82.5001C116.1 99.3001 108.9 117.3 108 119.7C100.8 140.4 98.9998 153.6 97.7998 164.4C96.2998 175.5 95.3998 183.6 88.7998 194.1C84.2998 201.3 80.0998 208.2 75.8998 214.2C71.0998 221.1 70.4998 229.8 74.3998 237.3C77.9998 244.8 85.4998 249.6 93.5998 250.2C93.8998 250.2 94.4998 250.2 94.7998 250.2C101.4 250.2 108 247.2 112.2 242.1C122.1 230.7 139.2 209.1 142.5 193.5C145.2 180.6 147 165.6 148.2 150.3C149.4 165 151.2 180 153.9 193.2C157.5 212.1 181.8 237.6 186.6 242.7C191.1 247.2 197.1 249.9 203.7 249.9C204.3 249.9 204.6 249.9 205.2 249.9C214.2 249.3 222 243.9 225.6 235.5C229.5 227.4 228 218.1 222 211.2ZM138.6 192.6C135.6 207 118.8 228 109.5 239.1C105.9 243.3 100.2 245.7 94.4998 245.4C87.8998 245.1 81.8998 241.2 78.8998 235.2C75.8998 229.2 76.4998 222.3 80.0998 216.6C84.2998 210.3 88.7998 203.7 92.9998 196.2C99.8998 184.5 101.1 175.8 102.6 164.7C103.8 154.2 105.6 141.3 112.8 121.2C113.7 118.8 120.6 101.7 128.4 85.2001C132.9 75.6001 137.1 68.1001 140.4 63.0001C143.4 58.5001 145.2 56.4001 146.4 55.5001C146.1 62.7001 145.8 81.0001 146.4 103.2C146.1 103.2 145.8 102.9 145.2 102.9C143.7 102.6 141.3 102.3 138.3 104.1C133.2 107.1 129 113.7 125.7 122.4C122.7 131.1 121.2 141 121.5 150.3C121.5 151.5 122.4 152.4 123.9 152.4C125.1 152.4 126 151.2 126 150C125.7 141 127.2 131.7 129.9 123.6C132.6 115.8 136.5 110.1 140.4 107.7C141.6 107.1 142.5 106.8 143.7 107.1C144.9 107.4 145.8 108.3 146.1 108.9C145.5 136.5 144 168 138.6 192.6ZM221.7 234C218.7 240.9 212.7 245.1 205.2 245.7C199.5 246 194.1 243.9 190.2 240C177.3 226.8 161.4 206.4 158.7 192.9C154.8 171.9 151.8 141.9 150.9 108.9C151.2 108.3 152.1 107.4 153.3 107.1C154.2 106.8 155.4 107.1 156.6 107.7C160.5 110.1 164.4 116.1 167.1 123.6C170.1 131.7 171.3 141 171 150C171 151.2 171.9 152.4 173.1 152.4C174.3 152.4 175.2 151.5 175.5 150.3C175.8 140.7 174.3 130.8 171.3 122.4C168.3 113.7 163.8 107.1 158.7 104.1C156 102.3 153.6 102.3 151.8 102.9C151.2 102.9 150.6 103.2 150.3 103.5C149.7 81.0001 150 62.4001 150.3 55.5001C151.5 56.4001 153.6 58.5001 156.6 63.3001C159.9 68.7001 164.1 76.2001 168.6 85.5001C176.4 102 183.3 119.4 184.2 121.5C191.4 142.2 193.2 155.1 194.7 165.6C196.2 176.4 197.4 185.1 203.7 196.5C205.2 199.2 210.9 206.1 216.9 213L218.1 214.5C223.5 219.9 224.7 227.4 221.7 234Z" fill="#30434F"/>
</svg>
