<?xml version="1.0" encoding="UTF-8"?>
<svg id="Layer_1" xmlns="http://www.w3.org/2000/svg" version="1.1" viewBox="0 0 125.61 82.57">
  <!-- Generator: Adobe Illustrator 29.4.0, SVG Export Plug-In . SVG Version: 2.1.0 Build 152)  -->
  <defs>
    <style>
      .st0 {
        fill: #fff;
      }
    </style>
  </defs>
  <g id="Shape">
    <g>
      <g>
        <path class="st0" d="M68.56,57.81c-.1.03-.18.06-.26.08-.07.02-.14.03-.19.04-.06,0-.11.02-.17.02-.19.01-.4,0-.53-.07-.09-.05-.16-.13-.21-.25-.06-.13-.1-.3-.13-.51-.03-.22-.04-.49-.04-.8,0-.48,0-.95,0-1.39,0-.44.01-.88.02-1.31,0-.43.02-.85.04-1.27s.04-.84.06-1.27c.02-.43.05-.87.09-1.32s.07-.93.12-1.42v-.11s-.09-.05-.09-.05c-.11-.05-.22-.08-.33-.11-.18-.04-.33-.05-.51-.02-.07.01-.14.03-.21.06-.07.03-.14.07-.2.12-.06.05-.12.12-.15.21-.25.56-.5,1.12-.75,1.68l-2.33,5.29c-.07.16-.13.3-.19.44-.06.14-.11.27-.16.39,0,0,0,.01,0,.02-.04-.13-.08-.26-.13-.39l-.15-.45c-.05-.14-.1-.29-.16-.45l-.03-.08c-.17-.5-.35-1.01-.54-1.54l-1.11-3.13c-.18-.51-.35-.98-.51-1.43-.05-.12-.09-.23-.14-.31-.05-.09-.12-.17-.19-.23-.08-.06-.17-.1-.27-.13-.25-.06-.62-.04-1.2.06-.36.06-.82.16-1.37.29l-.14.03.09.7.16-.02c.15-.02.3-.04.42-.06.3-.03.51-.02.65.01.06.01.11.04.14.07.03.04.06.09.08.17.02.09.03.21.03.35,0,.24,0,.52,0,.84,0,.32-.01.67-.02,1.05-.01.38-.03.77-.06,1.19-.02.42-.06.84-.1,1.28-.04.42-.09.85-.15,1.29-.06.43-.13.85-.21,1.25-.08.4-.18.78-.29,1.14-.11.35-.23.67-.37.96l-.06.12.21.15h.43c.14.01.27,0,.37,0,.12-.02.23-.05.32-.11.09-.06.16-.15.22-.26.05-.1.1-.23.13-.4.03-.15.06-.34.09-.58.03-.22.05-.49.08-.81.04-.39.07-.81.1-1.26.03-.45.06-.93.09-1.41.02-.49.04-.98.06-1.48.02-.5.02-1,.02-1.48v-.44c.05.14.1.3.16.46l.29.81c.11.3.22.62.34.96l.37,1.07c.13.37.26.74.38,1.11l.72,2.13c.11.32.21.63.3.91.09.28.17.52.23.73l.03.1.44.02.04-.1c.28-.67.57-1.34.86-2.02.29-.67.57-1.34.86-1.99.28-.66.56-1.3.84-1.93.28-.63.55-1.24.81-1.82.05-.11.09-.2.13-.3,0,.06,0,.12-.01.18-.02.35-.04.71-.05,1.06,0,.16-.01.36-.02.6l-.02.75c0,.27-.01.55-.02.83l-.02,2.69c0,.36.02.68.07.93.05.26.12.47.21.64.1.17.23.3.39.38.15.08.33.11.52.11.14,0,.28-.01.42-.03.14-.02.29-.06.46-.1.16-.05.34-.1.52-.17.19-.07.39-.15.61-.25l.13-.06-.22-.66-.15.05Z"/>
        <path class="st0" d="M72.87,54.96c.37-.17.67-.38.89-.62.23-.26.34-.57.34-.91,0-.24-.05-.45-.16-.64-.1-.19-.24-.34-.41-.47-.17-.12-.36-.22-.58-.28-.54-.16-1.17-.12-1.69.07-.31.11-.6.27-.85.46-.26.19-.49.42-.69.69-.2.26-.37.55-.51.85-.14.3-.25.62-.32.96-.07.33-.11.67-.11,1.01,0,.41.07.8.19,1.17.13.36.31.68.54.95.23.27.51.49.83.65.32.16.68.24,1.07.24.22,0,.45-.03.68-.09.23-.06.46-.15.68-.27.22-.12.43-.28.64-.46.2-.18.4-.4.57-.64.03-.04.05-.08.05-.13,0-.04-.01-.1-.06-.16-.02-.03-.05-.06-.09-.09-.03-.02-.06-.05-.1-.07-.03-.02-.06-.03-.08-.04l-.1-.05-.08.08c-.28.29-.56.5-.82.62-.52.25-1.03.25-1.45.02-.21-.12-.4-.28-.56-.49-.16-.21-.29-.47-.38-.77-.09-.29-.14-.61-.14-.95.51-.05.99-.12,1.43-.21.49-.1.92-.23,1.28-.4ZM70.21,54.86c.02-.11.04-.23.07-.34.04-.18.09-.36.16-.53.07-.17.14-.33.24-.48.09-.15.19-.28.31-.39.11-.11.24-.19.39-.25.14-.06.3-.09.47-.09.11,0,.21.02.31.06.1.04.18.1.25.18.07.07.12.16.16.26.04.1.06.22.06.33,0,.18-.05.33-.15.46-.11.14-.27.27-.48.37-.22.11-.5.2-.83.27-.28.06-.6.11-.94.14Z"/>
        <path class="st0" d="M79.57,53.68h.11l.04-.03c.15-.11.26-.24.33-.39.07-.15.1-.3.1-.46,0-.13-.03-.25-.08-.36-.05-.11-.12-.2-.21-.28-.09-.08-.19-.14-.31-.18-.12-.04-.24-.06-.38-.06-.36,0-.7.12-1,.36-.29.23-.55.54-.79.93-.23.39-.45.85-.63,1.37-.04.1-.07.21-.11.31,0-.06.01-.12.02-.19.02-.25.04-.48.05-.7l.06-.98c0-.11,0-.17,0-.2,0-.27-.05-.47-.16-.61-.12-.16-.3-.24-.55-.24-.12,0-.34.04-.67.12-.32.08-.74.21-1.24.39l-.13.05.13.62.44-.11c.08-.02.15-.03.22-.05.06-.01.12-.02.17-.03.16-.02.28,0,.33.02.03.01.05.03.07.06.02.03.03.08.04.14,0,.08.01.17.01.27,0,.14,0,.32,0,.56,0,.24-.01.5-.02.8l-.04.96c-.01.34-.03.69-.05,1.04-.02.35-.04.69-.06,1.03-.02.34-.04.65-.07.94v.16s.23.01.23.01l1.09-.14v-.12c.03-.19.06-.43.1-.72.04-.28.1-.59.17-.92.07-.33.16-.66.25-1,.1-.34.21-.67.33-.98.12-.3.25-.59.4-.84.14-.24.29-.44.45-.59.09-.08.19-.15.3-.19.21-.08.44-.09.64,0,.1.04.21.11.32.2l.08.04Z"/>
        <path class="st0" d="M83.53,54.73l-.05-.12-.13.02c-.13.02-.28.04-.43.05-.43.02-.9.01-1.29,0-.5-.02-.92-.03-1.27,0-.18.02-.35.06-.48.13-.14.07-.26.18-.34.31-.08.13-.12.31-.12.52v.21l.2-.06c.18-.05.37-.09.55-.11.33-.03.69-.03,1.02-.02l.46.02c.16,0,.31.02.45.02.31.01.65.01.87,0,.13-.01.24-.03.33-.07.1-.04.17-.1.23-.18.05-.08.07-.17.07-.29,0-.06,0-.13-.02-.2-.01-.08-.03-.16-.07-.23Z"/>
        <path class="st0" d="M99.42,57.91c-.54.32-.96.32-1.21-.03-.14-.19-.21-.49-.21-.89,0-.27,0-.55.02-.82.02-.28.03-.55.06-.81.02-.26.04-.51.06-.75.02-.24.03-.47.03-.67,0-.3-.03-.58-.1-.82-.07-.25-.19-.47-.34-.65-.16-.18-.36-.32-.61-.41-.37-.14-.85-.19-1.46-.08-.2.04-.42.1-.63.17-.21.07-.41.16-.6.27-.2.11-.37.23-.53.37-.15.14-.28.3-.37.47-.1.18-.15.37-.15.58,0,.13.02.25.07.36.05.11.11.2.19.27.08.07.18.13.29.17.28.1.62.07.93-.09l.06-.03.07-.19-.05-.07c-.09-.13-.16-.26-.21-.39-.05-.13-.07-.26-.07-.39,0-.1.02-.2.05-.29.03-.08.08-.15.16-.22.08-.06.18-.12.31-.16.23-.07.59-.1.93.01.14.05.27.12.38.22.11.1.2.22.27.38.07.15.1.34.1.56s0,.4-.02.58c-.01.13-.02.27-.04.41-.29,0-.58.03-.85.06-.32.04-.64.11-.93.19-.29.09-.57.2-.82.32-.25.13-.48.29-.66.47-.19.19-.34.4-.44.63-.11.24-.16.5-.16.79,0,.12.01.23.03.33h0c-.16.05-.3.09-.43.12-.22.05-.42.06-.61,0-.08-.02-.17-.06-.26-.11-.09-.05-.19-.12-.3-.2-.1-.08-.22-.19-.34-.31-.17-.17-.36-.38-.56-.62-.2-.24-.43-.54-.68-.89-.25-.35-.53-.77-.84-1.25-.3-.47-.63-1.01-.98-1.61.32-.45.64-.88.95-1.29.32-.42.64-.8.94-1.13.3-.32.59-.57.85-.76.37-.26.68-.32,1.01-.2.1.04.21.11.31.22l.08.05h.12l.04-.03c.15-.11.27-.26.35-.42s.12-.34.12-.5c0-.11-.02-.22-.06-.32-.04-.11-.1-.2-.19-.28-.08-.08-.19-.14-.31-.18-.12-.04-.26-.07-.42-.07-.35,0-.72.12-1.07.37-.34.23-.71.56-1.09.99-.37.42-.78.92-1.2,1.5s-.88,1.22-1.37,1.92l-.23.33c0-.16,0-.31.01-.46.01-.43.02-.84.04-1.2s.02-.69.03-.97l.02-.69c0-.18,0-.3,0-.35,0-.2,0-.37-.02-.53-.01-.17-.05-.32-.12-.45-.07-.13-.18-.24-.33-.3-.27-.12-.68-.13-1.34,0-.31.06-.69.14-1.13.25l-.13.03.08.67.16-.02c.52-.07.87-.09,1.06-.03.07.02.12.05.15.09.04.04.06.1.08.18.02.09.03.2.03.34,0,.73,0,1.45-.02,2.17-.01.72-.03,1.44-.05,2.18-.02.74-.05,1.5-.07,2.29-.03.79-.06,1.61-.1,2.49v.15s.26.02.26.02l1.21-.15v-.13c.02-.52.03-1.04.05-1.57l.09-3.06c0-.12,0-.25.01-.37.37.64.71,1.21,1.02,1.7.34.54.65,1.02.93,1.41.28.4.53.73.75,1,.22.27.42.48.59.64.1.1.2.18.3.26.1.08.2.14.29.19.1.05.2.09.31.12.1.03.22.04.33.04s.24-.01.37-.04c.13-.02.28-.06.43-.11.15-.05.32-.11.5-.18.18-.07.38-.15.6-.24l.06-.02c.04.05.07.11.12.15.14.14.3.25.49.34.19.08.4.12.63.12.28,0,.55-.07.8-.2.24-.13.48-.3.69-.51.21-.2.41-.44.58-.7.06-.08.11-.16.16-.25,0,.23.05.44.11.62.07.22.18.41.31.55s.3.26.49.34c.43.17.97.14,1.42-.06.26-.11.5-.28.71-.5l.09-.09-.29-.42-.13.08ZM96.7,55.68c-.02.14-.06.28-.1.42-.06.19-.15.38-.25.56-.1.18-.21.34-.33.49-.12.15-.25.27-.38.38-.13.1-.26.18-.39.24-.23.1-.46.11-.6.03-.06-.04-.12-.08-.16-.14-.05-.07-.08-.14-.1-.23-.02-.09-.03-.2-.03-.3,0-.19.03-.35.09-.49.06-.14.15-.26.25-.36.11-.1.24-.19.4-.26.16-.07.34-.14.52-.18.19-.05.39-.08.61-.1.16-.02.31-.03.47-.04Z"/>
        <path class="st0" d="M103.59,54.73l-.05-.12-.13.02c-.13.02-.28.04-.43.05-.43.02-.9.01-1.29,0-.5-.02-.92-.03-1.27,0-.18.02-.35.06-.48.13-.14.07-.26.18-.34.31-.08.13-.12.31-.12.52v.21l.2-.06c.18-.05.37-.09.55-.11.33-.03.69-.03,1.02-.02l.46.02c.16,0,.31.02.45.02.31.01.65.01.87,0,.13-.01.24-.03.33-.07.1-.04.17-.1.23-.18.05-.08.07-.17.07-.29,0-.06,0-.13-.02-.2-.01-.08-.03-.16-.07-.23Z"/>
        <path class="st0" d="M110.81,53.63c-.29-.23-.65-.41-1.05-.53-.21-.07-.44-.12-.67-.16.15-.06.29-.12.43-.19.32-.16.62-.36.86-.59.25-.24.46-.52.6-.84.15-.32.23-.7.23-1.11,0-.29-.04-.55-.13-.78-.09-.23-.21-.43-.36-.6-.15-.17-.33-.31-.54-.42-.2-.11-.42-.2-.66-.26-.24-.06-.49-.11-.75-.14-.58-.06-1.17-.05-1.81,0-.35.03-.7.07-1.04.11-.35.05-.68.1-1.01.15-.32.05-.63.11-.9.16l-.14.03.08.71.16-.02c.51-.07.86-.09,1.06-.03.07.02.12.05.15.08.04.04.06.09.07.15.02.08.03.18.03.29,0,.51,0,1.02,0,1.56,0,.53-.01,1.07-.02,1.61-.01.54-.02,1.08-.04,1.61-.02.53-.04,1.05-.06,1.56-.02.5-.05.99-.08,1.45-.03.46-.07.89-.11,1.29l-.02.15.27.03.86-.1c.27.04.52.08.76.11.25.03.51.05.78.05.33,0,.66-.03.98-.08.32-.05.64-.13.93-.24.29-.11.57-.25.82-.42.26-.17.48-.38.67-.62s.34-.52.44-.84c.11-.31.16-.66.16-1.05,0-.46-.09-.87-.25-1.21-.17-.34-.41-.63-.7-.86ZM108.76,52.22c-.19.12-.4.21-.62.28-.23.07-.47.13-.72.16-.2.03-.4.05-.6.06l.06-2.31c0-.36.02-.68.02-.96,0-.22,0-.42.01-.59.11-.01.21-.03.32-.03.45-.04.87-.02,1.24.07.24.06.45.15.63.29.17.13.31.3.41.52.1.22.15.49.15.81,0,.28-.04.53-.12.74s-.18.4-.32.56c-.13.16-.3.3-.48.41ZM108.54,53.67c.37.1.68.24.92.43.24.19.43.42.56.7.13.28.2.62.2,1,0,.41-.07.76-.19,1.05-.13.29-.3.52-.52.71-.22.18-.49.32-.79.41-.49.14-1.06.16-1.62.1-.16-.02-.33-.04-.5-.08.01-.17.02-.36.04-.57.02-.26.03-.53.05-.82.02-.29.03-.58.04-.88l.04-.87c.01-.28.02-.55.03-.79l.02-.5h.16c.59-.03,1.13.01,1.58.13Z"/>
        <path class="st0" d="M118.98,57.83l-.13.08c-.54.32-.96.32-1.21-.03-.14-.19-.21-.49-.21-.89,0-.27,0-.55.02-.82.02-.28.03-.55.06-.81.02-.26.04-.51.06-.75.02-.24.03-.47.03-.67,0-.3-.03-.58-.1-.82-.07-.25-.19-.47-.34-.65-.16-.18-.36-.32-.61-.41-.37-.14-.85-.19-1.46-.08-.2.04-.42.1-.63.17-.21.07-.41.16-.6.27-.2.11-.37.23-.53.37-.15.14-.28.3-.37.47-.1.18-.15.37-.15.58,0,.13.02.25.07.36.05.11.11.2.19.27.08.07.18.13.29.17.28.1.62.07.93-.09l.06-.03.07-.19-.05-.07c-.09-.13-.16-.26-.21-.39-.05-.13-.07-.26-.07-.39,0-.1.02-.2.05-.29.03-.08.08-.15.16-.22.08-.06.18-.12.31-.16.23-.07.59-.1.93.01.14.05.27.12.38.22.11.1.2.22.27.38.07.15.1.34.1.56s0,.4-.02.58c-.01.13-.02.27-.04.41-.29,0-.58.03-.85.06-.32.04-.64.11-.93.19-.29.09-.57.2-.82.32-.25.13-.48.29-.66.47-.19.19-.34.4-.44.63-.11.24-.16.5-.16.79,0,.22.04.44.11.63.08.19.18.36.32.5.14.14.3.25.49.34.19.08.4.12.63.12.28,0,.55-.07.8-.2.24-.13.48-.3.69-.51.21-.2.41-.44.58-.7.06-.08.11-.16.16-.25,0,.23.05.44.11.62.07.22.18.41.31.55s.3.26.49.34c.43.17.97.14,1.42-.06.26-.11.5-.28.71-.5l.09-.09-.29-.42ZM116.13,55.68c-.02.14-.06.28-.1.42-.06.19-.15.38-.25.56-.1.18-.21.34-.33.49-.12.15-.25.27-.38.38-.13.1-.26.18-.39.24-.23.1-.46.11-.6.03-.06-.04-.12-.08-.16-.14-.05-.07-.08-.14-.1-.23-.02-.09-.03-.2-.03-.3,0-.19.03-.35.09-.49.06-.14.15-.26.25-.36.11-.1.24-.19.4-.26.16-.07.34-.14.52-.18.19-.05.39-.08.61-.1.16-.02.31-.03.47-.04Z"/>
      </g>
      <g>
        <path d="M68.18,57.54c-.1.03-.18.06-.26.08-.07.02-.14.03-.19.04-.06,0-.11.02-.17.02-.19.01-.4,0-.53-.07-.09-.05-.16-.13-.21-.25-.06-.13-.1-.3-.13-.51-.03-.22-.04-.49-.04-.8,0-.48,0-.95,0-1.39,0-.44.01-.88.02-1.31,0-.43.02-.85.04-1.27s.04-.84.06-1.27c.02-.43.05-.87.09-1.32s.07-.93.12-1.42v-.11s-.09-.05-.09-.05c-.11-.05-.22-.08-.33-.11-.18-.04-.33-.05-.51-.02-.07.01-.14.03-.21.06-.07.03-.14.07-.2.12-.06.05-.12.12-.15.21-.25.56-.5,1.12-.75,1.68l-2.33,5.29c-.07.16-.13.3-.19.44-.06.14-.11.27-.16.39,0,0,0,.01,0,.02-.04-.13-.08-.26-.13-.39l-.15-.45c-.05-.14-.1-.29-.16-.45l-.03-.08c-.17-.5-.35-1.01-.54-1.54l-1.11-3.13c-.18-.51-.35-.98-.51-1.43-.05-.12-.09-.23-.14-.31-.05-.09-.12-.17-.19-.23-.08-.06-.17-.1-.27-.13-.25-.06-.62-.04-1.2.06-.36.06-.82.16-1.37.29l-.14.03.09.7.16-.02c.15-.02.3-.04.42-.06.3-.03.51-.02.65.01.06.01.11.04.14.07.03.04.06.09.08.17.02.09.03.21.03.35,0,.24,0,.52,0,.84,0,.32-.01.67-.02,1.05-.01.38-.03.77-.06,1.19-.02.42-.06.84-.1,1.28-.04.42-.09.85-.15,1.29-.06.43-.13.85-.21,1.25-.08.4-.18.78-.29,1.14-.11.35-.23.67-.37.96l-.06.12.21.15h.43c.14.01.27,0,.37,0,.12-.02.23-.05.32-.11.09-.06.16-.15.22-.26.05-.1.1-.23.13-.4.03-.15.06-.34.09-.58.03-.22.05-.49.08-.81.04-.39.07-.81.1-1.26.03-.45.06-.93.09-1.41.02-.49.04-.98.06-1.48.02-.5.02-1,.02-1.48v-.44c.05.14.1.3.16.46l.29.81c.11.3.22.62.34.96l.37,1.07c.13.37.26.74.38,1.11l.72,2.13c.11.32.21.63.3.91.09.28.17.52.23.73l.03.1.44.02.04-.1c.28-.67.57-1.34.86-2.02.29-.67.57-1.34.86-1.99.28-.66.56-1.3.84-1.93.28-.63.55-1.24.81-1.82.05-.11.09-.2.13-.3,0,.06,0,.12-.01.18-.02.35-.04.71-.05,1.06,0,.16-.01.36-.02.6l-.02.75c0,.27-.01.55-.02.83l-.02,2.69c0,.36.02.68.07.93.05.26.12.47.21.64.1.17.23.3.39.38.15.08.33.11.52.11.14,0,.28-.01.42-.03.14-.02.29-.06.46-.1.16-.05.34-.1.52-.17.19-.07.39-.15.61-.25l.13-.06-.22-.66-.15.05Z"/>
        <path d="M72.49,54.7c.37-.17.67-.38.89-.62.23-.26.34-.57.34-.91,0-.24-.05-.45-.16-.64-.1-.19-.24-.34-.41-.47-.17-.12-.36-.22-.58-.28-.54-.16-1.17-.12-1.69.07-.31.11-.6.27-.85.46-.26.19-.49.42-.69.69-.2.26-.37.55-.51.85-.14.3-.25.62-.32.96-.07.33-.11.67-.11,1.01,0,.41.07.8.19,1.17.13.36.31.68.54.95.23.27.51.49.83.65.32.16.68.24,1.07.24.22,0,.45-.03.68-.09.23-.06.46-.15.68-.27.22-.12.43-.28.64-.46.2-.18.4-.4.57-.64.03-.04.05-.08.05-.13,0-.04-.01-.1-.06-.16-.02-.03-.05-.06-.09-.09-.03-.02-.06-.05-.1-.07-.03-.02-.06-.03-.08-.04l-.1-.05-.08.08c-.28.29-.56.5-.82.62-.52.25-1.03.25-1.45.02-.21-.12-.4-.28-.56-.49-.16-.21-.29-.47-.38-.77-.09-.29-.14-.61-.14-.95.51-.05.99-.12,1.43-.21.49-.1.92-.23,1.28-.4ZM69.83,54.59c.02-.11.04-.23.07-.34.04-.18.09-.36.16-.53.07-.17.14-.33.24-.48.09-.15.19-.28.31-.39.11-.11.24-.19.39-.25.14-.06.3-.09.47-.09.11,0,.21.02.31.06.1.04.18.1.25.18.07.07.12.16.16.26.04.1.06.22.06.33,0,.18-.05.33-.15.46-.11.14-.27.27-.48.37-.22.11-.5.2-.83.27-.28.06-.6.11-.94.14Z"/>
        <path d="M79.19,53.41h.11l.04-.03c.15-.11.26-.24.33-.39.07-.15.1-.3.1-.46,0-.13-.03-.25-.08-.36-.05-.11-.12-.2-.21-.28-.09-.08-.19-.14-.31-.18-.12-.04-.24-.06-.38-.06-.36,0-.7.12-1,.36-.29.23-.55.54-.79.93-.23.39-.45.85-.63,1.37-.04.1-.07.21-.11.31,0-.06.01-.12.02-.19.02-.25.04-.48.05-.7l.06-.98c0-.11,0-.17,0-.2,0-.27-.05-.47-.16-.61-.12-.16-.3-.24-.55-.24-.12,0-.34.04-.67.12-.32.08-.74.21-1.24.39l-.13.05.13.62.44-.11c.08-.02.15-.03.22-.05.06-.01.12-.02.17-.03.16-.02.28,0,.33.02.03.01.05.03.07.06.02.03.03.08.04.14,0,.08.01.17.01.27,0,.14,0,.32,0,.56,0,.24-.01.5-.02.8l-.04.96c-.01.34-.03.69-.05,1.04-.02.35-.04.69-.06,1.03-.02.34-.04.65-.07.94v.16s.23.01.23.01l1.09-.14v-.12c.03-.19.06-.43.1-.72.04-.28.1-.59.17-.92.07-.33.16-.66.25-1,.1-.34.21-.67.33-.98.12-.3.25-.59.4-.84.14-.24.29-.44.45-.59.09-.08.19-.15.3-.19.21-.08.44-.09.64,0,.1.04.21.11.32.2l.08.04Z"/>
        <path d="M83.15,54.46l-.05-.12-.13.02c-.13.02-.28.04-.43.05-.43.02-.9.01-1.29,0-.5-.02-.92-.03-1.27,0-.18.02-.35.06-.48.13-.14.07-.26.18-.34.31-.08.13-.12.31-.12.52v.21l.2-.06c.18-.05.37-.09.55-.11.33-.03.69-.03,1.02-.02l.46.02c.16,0,.31.02.45.02.31.01.65.01.87,0,.13-.01.24-.03.33-.07.1-.04.17-.1.23-.18.05-.08.07-.17.07-.29,0-.06,0-.13-.02-.2-.01-.08-.03-.16-.07-.23Z"/>
        <path d="M99.04,57.64c-.54.32-.96.32-1.21-.03-.14-.19-.21-.49-.21-.89,0-.27,0-.55.02-.82.02-.28.03-.55.06-.81.02-.26.04-.51.06-.75.02-.24.03-.47.03-.67,0-.3-.03-.58-.1-.82-.07-.25-.19-.47-.34-.65-.16-.18-.36-.32-.61-.41-.37-.14-.85-.19-1.46-.08-.2.04-.42.1-.63.17-.21.07-.41.16-.6.27-.2.11-.37.23-.53.37-.15.14-.28.3-.37.47-.1.18-.15.37-.15.58,0,.13.02.25.07.36.05.11.11.2.19.27.08.07.18.13.29.17.28.1.62.07.93-.09l.06-.03.07-.19-.05-.07c-.09-.13-.16-.26-.21-.39-.05-.13-.07-.26-.07-.39,0-.1.02-.2.05-.29.03-.08.08-.15.16-.22.08-.06.18-.12.31-.16.23-.07.59-.1.93.01.14.05.27.12.38.22.11.1.2.22.27.38.07.15.1.34.1.56s0,.4-.02.58c-.01.13-.02.27-.04.41-.29,0-.58.03-.85.06-.32.04-.64.11-.93.19-.29.09-.57.2-.82.32-.25.13-.48.29-.66.47-.19.19-.34.4-.44.63-.11.24-.16.5-.16.79,0,.12.01.23.03.33h0c-.16.05-.3.09-.43.12-.22.05-.42.06-.61,0-.08-.02-.17-.06-.26-.11-.09-.05-.19-.12-.3-.2-.1-.08-.22-.19-.34-.31-.17-.17-.36-.38-.56-.62-.2-.24-.43-.54-.68-.89-.25-.35-.53-.77-.84-1.25-.3-.47-.63-1.01-.98-1.61.32-.45.64-.88.95-1.29.32-.42.64-.8.94-1.13.3-.32.59-.57.85-.76.37-.26.68-.32,1.01-.2.1.04.21.11.31.22l.08.05h.12l.04-.03c.15-.11.27-.26.35-.42s.12-.34.12-.5c0-.11-.02-.22-.06-.32-.04-.11-.1-.2-.19-.28-.08-.08-.19-.14-.31-.18-.12-.04-.26-.07-.42-.07-.35,0-.72.12-1.07.37-.34.23-.71.56-1.09.99-.37.42-.78.92-1.2,1.5s-.88,1.22-1.37,1.92l-.23.33c0-.16,0-.31.01-.46.01-.43.02-.84.04-1.2s.02-.69.03-.97l.02-.69c0-.18,0-.3,0-.35,0-.2,0-.37-.02-.53-.01-.17-.05-.32-.12-.45-.07-.13-.18-.24-.33-.3-.27-.12-.68-.13-1.34,0-.31.06-.69.14-1.13.25l-.13.03.08.67.16-.02c.52-.07.87-.09,1.06-.03.07.02.12.05.15.09.04.04.06.1.08.18.02.09.03.2.03.34,0,.73,0,1.45-.02,2.17-.01.72-.03,1.44-.05,2.18-.02.74-.05,1.5-.07,2.29-.03.79-.06,1.61-.1,2.49v.15s.26.02.26.02l1.21-.15v-.13c.02-.52.03-1.04.05-1.57l.09-3.06c0-.12,0-.25.01-.37.37.64.71,1.21,1.02,1.7.34.54.65,1.02.93,1.41.28.4.53.73.75,1,.22.27.42.48.59.64.1.1.2.18.3.26.1.08.2.14.29.19.1.05.2.09.31.12.1.03.22.04.33.04s.24-.01.37-.04c.13-.02.28-.06.43-.11.15-.05.32-.11.5-.18.18-.07.38-.15.6-.24l.06-.02c.04.05.07.11.12.15.14.14.3.25.49.34.19.08.4.12.63.12.28,0,.55-.07.8-.2.24-.13.48-.3.69-.51.21-.2.41-.44.58-.7.06-.08.11-.16.16-.25,0,.23.05.44.11.62.07.22.18.41.31.55s.3.26.49.34c.43.17.97.14,1.42-.06.26-.11.5-.28.71-.5l.09-.09-.29-.42-.13.08ZM96.32,55.41c-.02.14-.06.28-.1.42-.06.19-.15.38-.25.56-.1.18-.21.34-.33.49-.12.15-.25.27-.38.38-.13.1-.26.18-.39.24-.23.1-.46.11-.6.03-.06-.04-.12-.08-.16-.14-.05-.07-.08-.14-.1-.23-.02-.09-.03-.2-.03-.3,0-.19.03-.35.09-.49.06-.14.15-.26.25-.36.11-.1.24-.19.4-.26.16-.07.34-.14.52-.18.19-.05.39-.08.61-.1.16-.02.31-.03.47-.04Z"/>
        <path d="M103.21,54.46l-.05-.12-.13.02c-.13.02-.28.04-.43.05-.43.02-.9.01-1.29,0-.5-.02-.92-.03-1.27,0-.18.02-.35.06-.48.13-.14.07-.26.18-.34.31-.08.13-.12.31-.12.52v.21l.2-.06c.18-.05.37-.09.55-.11.33-.03.69-.03,1.02-.02l.46.02c.16,0,.31.02.45.02.31.01.65.01.87,0,.13-.01.24-.03.33-.07.1-.04.17-.1.23-.18.05-.08.07-.17.07-.29,0-.06,0-.13-.02-.2-.01-.08-.03-.16-.07-.23Z"/>
        <path d="M110.43,53.36c-.29-.23-.65-.41-1.05-.53-.21-.07-.44-.12-.67-.16.15-.06.29-.12.43-.19.32-.16.62-.36.86-.59.25-.24.46-.52.6-.84.15-.32.23-.7.23-1.11,0-.29-.04-.55-.13-.78-.09-.23-.21-.43-.36-.6-.15-.17-.33-.31-.54-.42-.2-.11-.42-.2-.66-.26-.24-.06-.49-.11-.75-.14-.58-.06-1.17-.05-1.81,0-.35.03-.7.07-1.04.11-.35.05-.68.1-1.01.15-.32.05-.63.11-.9.16l-.14.03.08.71.16-.02c.51-.07.86-.09,1.06-.03.07.02.12.05.15.08.04.04.06.09.07.15.02.08.03.18.03.29,0,.51,0,1.02,0,1.56,0,.53-.01,1.07-.02,1.61-.01.54-.02,1.08-.04,1.61-.02.53-.04,1.05-.06,1.56-.02.5-.05.99-.08,1.45-.03.46-.07.89-.11,1.29l-.02.15.27.03.86-.1c.27.04.52.08.76.11.25.03.51.05.78.05.33,0,.66-.03.98-.08.32-.05.64-.13.93-.24.29-.11.57-.25.82-.42.26-.17.48-.38.67-.62s.34-.52.44-.84c.11-.31.16-.66.16-1.05,0-.46-.09-.87-.25-1.21-.17-.34-.41-.63-.7-.86ZM108.38,51.95c-.19.12-.4.21-.62.28-.23.07-.47.13-.72.16-.2.03-.4.05-.6.06l.06-2.31c0-.36.02-.68.02-.96,0-.22,0-.42.01-.59.11-.01.21-.03.32-.03.45-.04.87-.02,1.24.07.24.06.45.15.63.29.17.13.31.3.41.52.1.22.15.49.15.81,0,.28-.04.53-.12.74s-.18.4-.32.56c-.13.16-.3.3-.48.41ZM108.16,53.4c.37.1.68.24.92.43.24.19.43.42.56.7.13.28.2.62.2,1,0,.41-.07.76-.19,1.05-.13.29-.3.52-.52.71-.22.18-.49.32-.79.41-.49.14-1.06.16-1.62.1-.16-.02-.33-.04-.5-.08.01-.17.02-.36.04-.57.02-.26.03-.53.05-.82.02-.29.03-.58.04-.88l.04-.87c.01-.28.02-.55.03-.79l.02-.5h.16c.59-.03,1.13.01,1.58.13Z"/>
        <path d="M118.6,57.56l-.13.08c-.54.32-.96.32-1.21-.03-.14-.19-.21-.49-.21-.89,0-.27,0-.55.02-.82.02-.28.03-.55.06-.81.02-.26.04-.51.06-.75.02-.24.03-.47.03-.67,0-.3-.03-.58-.1-.82-.07-.25-.19-.47-.34-.65-.16-.18-.36-.32-.61-.41-.37-.14-.85-.19-1.46-.08-.2.04-.42.1-.63.17-.21.07-.41.16-.6.27-.2.11-.37.23-.53.37-.15.14-.28.3-.37.47-.1.18-.15.37-.15.58,0,.13.02.25.07.36.05.11.11.2.19.27.08.07.18.13.29.17.28.1.62.07.93-.09l.06-.03.07-.19-.05-.07c-.09-.13-.16-.26-.21-.39-.05-.13-.07-.26-.07-.39,0-.1.02-.2.05-.29.03-.08.08-.15.16-.22.08-.06.18-.12.31-.16.23-.07.59-.1.93.01.14.05.27.12.38.22.11.1.2.22.27.38.07.15.1.34.1.56s0,.4-.02.58c-.01.13-.02.27-.04.41-.29,0-.58.03-.85.06-.32.04-.64.11-.93.19-.29.09-.57.2-.82.32-.25.13-.48.29-.66.47-.19.19-.34.4-.44.63-.11.24-.16.5-.16.79,0,.22.04.44.11.63.08.19.18.36.32.5.14.14.3.25.49.34.19.08.4.12.63.12.28,0,.55-.07.8-.2.24-.13.48-.3.69-.51.21-.2.41-.44.58-.7.06-.08.11-.16.16-.25,0,.23.05.44.11.62.07.22.18.41.31.55s.3.26.49.34c.43.17.97.14,1.42-.06.26-.11.5-.28.71-.5l.09-.09-.29-.42ZM115.75,55.41c-.02.14-.06.28-.1.42-.06.19-.15.38-.25.56-.1.18-.21.34-.33.49-.12.15-.25.27-.38.38-.13.1-.26.18-.39.24-.23.1-.46.11-.6.03-.06-.04-.12-.08-.16-.14-.05-.07-.08-.14-.1-.23-.02-.09-.03-.2-.03-.3,0-.19.03-.35.09-.49.06-.14.15-.26.25-.36.11-.1.24-.19.4-.26.16-.07.34-.14.52-.18.19-.05.39-.08.61-.1.16-.02.31-.03.47-.04Z"/>
      </g>
      <g>
        <path d="M9.54,65.45h-.48c0-.41-.01-.76-.01-1.07s.01-.59.04-.81c.03-.23.09-.41.18-.56.09-.15.23-.25.41-.32.18-.07.41-.1.71-.1.19,0,.4,0,.64.01s.5.02.76.03c.27,0,.54.02.82.03.28,0,.55.01.82.01.44,0,.83,0,1.17,0,.34,0,.64,0,.9,0,.26,0,.5,0,.69-.01.2,0,.38-.02.54-.03.16-.01.32-.03.46-.05.14-.02.29-.04.43-.07.06.16.08.29.08.39,0,.22-.09.38-.27.49-.18.11-.45.17-.8.17-.34,0-.73-.02-1.19-.06-.45-.04-.97-.08-1.54-.12,0,.48-.02,1-.04,1.54s-.03,1.11-.05,1.7c-.02.59-.03,1.18-.05,1.79-.02.61-.04,1.22-.06,1.83s-.04,1.22-.06,1.82c-.02.6-.03,1.18-.05,1.74l-1.16.15h-.09c.03-.63.05-1.23.07-1.8.02-.57.04-1.13.06-1.68.02-.55.04-1.1.05-1.65s.03-1.11.04-1.69.02-1.18.02-1.81c0-.63,0-1.29,0-2-.19,0-.37-.01-.57-.02s-.39,0-.59,0-.38,0-.56,0c-.17,0-.33.03-.47.07-.14.04-.27.1-.39.18-.11.08-.21.2-.29.35-.08.15-.14.34-.18.58-.04.23-.06.52-.06.86v.11Z"/>
        <path d="M17.83,71.14c-.12.33-.22.62-.31.87s-.16.46-.23.64-.12.34-.17.47c-.05.13-.09.25-.14.36-.05.12-.11.22-.18.29-.07.07-.14.12-.21.15-.08.03-.16.05-.24.05-.09,0-.18,0-.28,0-.06,0-.12,0-.21,0s-.16,0-.23,0l-.07-.05c.39-.85.76-1.66,1.11-2.43s.69-1.51,1.01-2.22c-.07-.11-.1-.2-.1-.27,0-.13.1-.2.31-.2.6-1.31,1.13-2.46,1.59-3.46.47-1,.88-1.83,1.23-2.51.03-.06.07-.11.13-.15.05-.04.11-.07.17-.09.06-.02.13-.04.2-.05.07,0,.14-.01.2-.01.09,0,.19,0,.28.02.09.02.19.05.29.09.21,1.13.39,2.15.57,3.05.17.9.33,1.71.48,2.42.15.71.28,1.32.42,1.85.13.53.26.98.38,1.35.12.38.24.69.36.93.12.24.25.44.37.58.13.14.27.24.41.29.14.06.3.08.47.08.11,0,.22-.01.34-.04.11-.03.24-.06.38-.11l.14.4c-.38.19-.73.33-1.08.43-.34.1-.65.15-.91.15-.15,0-.29-.03-.42-.08s-.26-.15-.38-.29c-.12-.14-.24-.32-.36-.55-.12-.23-.23-.51-.35-.86s-.24-.76-.36-1.23c-.12-.48-.25-1.03-.39-1.66-.6,0-1.2.02-1.79.04-.59.02-1.2.05-1.83.09-.13.34-.24.64-.34.92-.1.28-.19.53-.27.74ZM21.92,68.75c-.07-.32-.14-.68-.22-1.07-.08-.39-.16-.81-.24-1.25-.08-.44-.16-.9-.25-1.37-.08-.48-.17-.96-.25-1.45h-.03c-.47.97-.89,1.9-1.26,2.77-.37.88-.7,1.68-.98,2.42.56-.01,1.1-.02,1.63-.03.52,0,1.06-.02,1.6-.02Z"/>
        <path d="M27.48,64.11c0-.15,0-.28-.02-.39-.01-.11-.05-.2-.1-.27-.05-.07-.13-.12-.22-.15s-.22-.05-.38-.05c-.11,0-.24,0-.4.02-.16.01-.32.03-.49.06l-.05-.41c.48-.12.89-.21,1.23-.27.34-.06.63-.09.85-.09s.38.03.5.09c.12.06.2.14.25.25.05.11.09.25.1.41,0,.16.01.35.01.56,0,.07,0,.26-.01.57,0,.31-.02.71-.03,1.2-.01.49-.03,1.05-.05,1.68-.02.63-.04,1.3-.06,2.02s-.04,1.45-.07,2.21c-.02.76-.05,1.51-.07,2.25l-1.16.15h-.09c.04-.95.07-1.83.11-2.67.03-.84.06-1.65.08-2.44.02-.79.04-1.57.05-2.35s.02-1.57.02-2.38Z"/>
        <path d="M39.73,62.3c.43,0,.82.04,1.19.12.36.08.68.17.94.29.26.11.47.24.62.37.15.13.23.25.23.36,0,.23,0,.52-.02.88-.02.36-.04.79-.06,1.3h-.43c0-.06,0-.1,0-.14s0-.08,0-.13c0-.23-.03-.44-.08-.64-.05-.2-.13-.4-.26-.58-.13-.19-.29-.35-.47-.49s-.38-.26-.59-.36c-.21-.1-.44-.17-.69-.22s-.49-.08-.75-.08c-.44,0-.83.07-1.19.2-.36.14-.68.32-.96.56-.28.24-.52.52-.73.85-.21.33-.38.68-.51,1.07-.14.39-.24.79-.3,1.21-.07.42-.1.85-.1,1.29,0,.51.04.99.13,1.45.08.45.2.87.36,1.25.16.38.34.72.57,1.03.22.3.47.56.75.77.27.21.57.37.89.48.32.11.66.17,1.01.17.25,0,.5-.03.76-.08.26-.05.53-.14.8-.25.27-.12.54-.26.82-.44s.55-.39.82-.64c.03.01.06.03.09.05s.07.04.1.07c.03.02.05.05.08.08.02.03.03.06.03.09,0,.02-.01.05-.04.08-.32.35-.64.65-.97.88-.33.24-.65.43-.98.58s-.66.25-.99.32c-.33.06-.67.1-1,.1-.44,0-.86-.06-1.26-.18s-.77-.3-1.11-.53c-.34-.23-.65-.5-.93-.83-.28-.32-.51-.69-.71-1.09-.2-.4-.35-.84-.45-1.32-.11-.47-.16-.98-.16-1.5s.05-1.02.15-1.53.26-1,.46-1.47c.2-.47.46-.91.77-1.32.31-.41.67-.76,1.08-1.06s.87-.54,1.39-.71c.51-.17,1.08-.26,1.7-.26Z"/>
        <path d="M46.35,63.87c0,.14,0,.31,0,.53s-.01.48-.02.78-.02.67-.03,1.08c-.01.41-.03.88-.04,1.42.47-.02.92-.03,1.35-.04.43-.01.86-.02,1.28-.03.42,0,.84-.01,1.27-.02.42,0,.86,0,1.31-.01,0-.33.02-.66.03-1,.01-.33.02-.68.04-1.05.02-.37.04-.76.06-1.19.02-.42.05-.89.09-1.41,0-.07.03-.13.07-.18s.09-.09.16-.13c.06-.03.13-.06.21-.08.08-.02.16-.02.23-.02.09,0,.2.01.31.04.11.02.22.06.32.1-.05.53-.09,1.05-.13,1.54-.04.49-.07.97-.1,1.43-.03.46-.05.92-.07,1.37s-.03.91-.04,1.37c0,.46-.02.93-.02,1.41,0,.48,0,.98,0,1.5,0,.35.01.64.04.88s.08.44.15.6c.07.15.17.27.3.34.12.07.28.11.46.11.13,0,.27-.01.42-.03s.32-.07.53-.15l.14.4c-.23.1-.45.19-.66.26-.2.07-.39.14-.56.19-.17.05-.34.09-.49.11-.15.02-.29.04-.43.04-.19,0-.35-.03-.49-.1-.14-.07-.26-.18-.35-.34-.09-.16-.16-.37-.21-.63s-.07-.58-.07-.97v-1.11c0-.26,0-.5,0-.74,0-.23,0-.46,0-.68,0-.22,0-.43,0-.64,0-.21,0-.41.02-.61-.45,0-.89,0-1.31,0-.42,0-.84,0-1.27.02-.42,0-.85.02-1.29.04-.44.02-.89.04-1.36.06l-.17,5.48-1.16.15h-.09c.04-.95.07-1.83.11-2.68s.06-1.66.08-2.46c.02-.79.04-1.58.05-2.35s.02-1.56.02-2.35c0-.15-.01-.28-.03-.39-.02-.11-.06-.2-.12-.27-.06-.07-.14-.12-.24-.15s-.23-.05-.39-.05c-.22,0-.49.02-.83.07l-.05-.41c.47-.12.87-.21,1.2-.27.33-.06.6-.09.83-.09s.39.03.51.09c.12.06.22.14.28.25s.1.25.11.41c.01.16.02.35.02.56Z"/>
        <path d="M56.15,64.11c0-.15,0-.28-.02-.39-.01-.11-.05-.2-.1-.27-.05-.07-.13-.12-.22-.15s-.22-.05-.38-.05c-.11,0-.24,0-.4.02-.16.01-.32.03-.49.06l-.05-.41c.48-.12.89-.21,1.23-.27.34-.06.63-.09.85-.09s.38.03.5.09c.12.06.2.14.25.25.05.11.09.25.1.41,0,.16.01.35.01.56,0,.07,0,.26-.01.57,0,.31-.02.71-.03,1.2-.01.49-.03,1.05-.05,1.68-.02.63-.04,1.3-.06,2.02s-.04,1.45-.07,2.21c-.02.76-.05,1.51-.07,2.25l-1.16.15h-.09c.04-.95.07-1.83.11-2.67.03-.84.06-1.65.08-2.44.02-.79.04-1.57.05-2.35s.02-1.57.02-2.38Z"/>
        <path d="M81.25,76.01c-.32.45-.65.82-.98,1.13-.33.31-.66.56-.99.76-.33.19-.67.33-1,.42-.34.09-.67.13-1.01.13-.38,0-.77-.05-1.15-.14-.39-.09-.77-.22-1.15-.38-.38-.16-.77-.34-1.15-.55-.38-.21-.76-.43-1.13-.66-.38-.23-.75-.46-1.11-.7-.37-.24-.73-.46-1.09-.67-.36-.21-.71-.41-1.05-.58-.35-.17-.68-.32-1.01-.42-.18-.06-.36-.11-.53-.14-.17-.04-.33-.07-.49-.1s-.31-.05-.46-.07c-.15-.02-.29-.05-.43-.08-.52-.1-.99-.29-1.42-.56-.43-.27-.79-.63-1.09-1.07-.3-.44-.54-.96-.7-1.57s-.25-1.29-.25-2.06c0-.56.05-1.11.14-1.64.09-.53.23-1.04.41-1.51.18-.47.41-.91.68-1.31.27-.4.59-.74.95-1.02.36-.29.77-.51,1.22-.67.45-.16.94-.24,1.48-.24.66,0,1.26.11,1.8.34.55.23,1.02.57,1.42,1.02.4.45.7,1.01.92,1.68s.33,1.45.33,2.33c0,.5-.04.99-.11,1.46-.07.48-.18.93-.32,1.36-.14.43-.32.83-.54,1.2-.22.37-.47.7-.75,1s-.61.54-.96.75c-.36.2-.75.35-1.18.45v.04c.36.07.73.18,1.11.32s.75.29,1.14.46c.38.17.77.36,1.16.55.39.2.78.39,1.17.58.39.19.79.38,1.18.56s.78.33,1.18.47c.39.14.78.24,1.17.32s.77.12,1.15.12c.29,0,.57-.03.85-.08.28-.05.55-.14.83-.26.27-.12.54-.27.8-.47.26-.19.52-.43.76-.7l.25.2ZM67.73,73.43c.38,0,.72-.06,1.03-.19.31-.12.59-.3.83-.52.24-.22.45-.5.63-.82.18-.32.33-.68.44-1.07s.2-.82.26-1.27.09-.93.09-1.43c0-.89-.09-1.66-.26-2.31-.17-.65-.41-1.19-.71-1.62-.3-.43-.65-.75-1.05-.96s-.82-.32-1.27-.32c-.38,0-.72.06-1.03.19s-.59.3-.83.52-.45.5-.63.82c-.18.32-.33.68-.44,1.07-.12.39-.2.82-.26,1.27-.06.45-.09.93-.09,1.43,0,.89.09,1.66.26,2.31.17.65.41,1.19.71,1.62s.65.75,1.05.96c.4.21.82.32,1.27.32Z"/>
        <path d="M74.85,64.11c0-.15,0-.28-.02-.39-.01-.11-.05-.2-.1-.27-.05-.07-.13-.12-.22-.15s-.22-.05-.38-.05c-.11,0-.24,0-.4.02-.16.01-.32.03-.49.06l-.05-.41c.48-.12.89-.21,1.23-.27.34-.06.63-.09.85-.09s.38.03.5.09c.12.06.2.14.25.25.05.11.09.25.1.41,0,.16.01.35.01.56,0,.07,0,.26-.01.57,0,.31-.02.71-.03,1.2-.01.49-.03,1.05-.05,1.68-.02.63-.04,1.3-.06,2.02s-.04,1.45-.07,2.21c-.02.76-.05,1.51-.07,2.25l-1.16.15h-.09c.04-.95.07-1.83.11-2.67.03-.84.06-1.65.08-2.44.02-.79.04-1.57.05-2.35s.02-1.57.02-2.38Z"/>
        <path d="M83.78,62.3c.44,0,.85.04,1.22.11.37.08.69.17.96.28.27.11.48.23.63.36s.23.24.23.35c0,.23,0,.52-.03.88-.02.36-.04.79-.07,1.3h-.43c0-.06,0-.1,0-.14,0-.04,0-.09,0-.13,0-.23-.03-.44-.07-.65s-.13-.4-.26-.58c-.13-.19-.29-.35-.48-.49-.18-.14-.39-.26-.61-.35s-.46-.17-.71-.22c-.25-.05-.51-.07-.77-.07-.46,0-.87.07-1.24.21-.37.14-.7.33-1,.58-.29.25-.55.54-.76.87-.22.33-.39.7-.54,1.09s-.25.81-.32,1.24c-.07.43-.1.87-.1,1.31,0,.61.05,1.16.15,1.66.1.49.24.93.43,1.32.18.38.4.72.65.99.25.28.53.51.84.69.3.18.63.31.98.4.35.09.7.13,1.07.13.29,0,.54-.02.74-.06.2-.04.37-.1.49-.17s.22-.15.29-.25c.06-.1.1-.2.11-.31.03-.2.04-.41.05-.65,0-.24.01-.47.01-.7v-.44c0-.24-.02-.43-.05-.56-.03-.14-.1-.24-.19-.3s-.21-.11-.37-.12c-.16-.01-.36-.02-.62-.02h-.24s-.09,0-.15,0c-.06,0-.12,0-.2,0l-.03-.48c.05,0,.1,0,.14,0h.32c.22,0,.44,0,.68,0,.24,0,.47,0,.68-.01.21,0,.39,0,.54-.01.15,0,.25,0,.29,0,.18,0,.3.04.38.13.08.09.11.24.11.45,0,.13,0,.3-.01.5,0,.2-.02.43-.03.68s-.02.52-.03.8c-.01.29-.02.58-.03.88,0,.12-.01.22-.02.3-.01.08-.04.15-.07.2s-.07.1-.12.14c-.05.04-.12.08-.2.12-.09.05-.23.1-.4.16s-.37.11-.6.16-.48.09-.76.12c-.27.03-.56.05-.86.05-.4,0-.82-.03-1.24-.1-.42-.07-.83-.18-1.23-.35-.4-.16-.77-.38-1.13-.65-.35-.27-.66-.6-.92-1.01-.26-.4-.47-.88-.62-1.42-.15-.55-.23-1.18-.23-1.89,0-.51.05-1.02.16-1.53s.26-1,.48-1.47c.21-.47.48-.91.79-1.31s.69-.76,1.11-1.06c.42-.3.9-.54,1.43-.71.53-.17,1.12-.26,1.75-.26Z"/>
        <path d="M92.56,74.07c-.66,0-1.26-.11-1.8-.34-.55-.23-1.02-.57-1.42-1.02-.4-.45-.7-1.01-.92-1.68-.22-.67-.33-1.45-.33-2.33,0-.56.05-1.11.14-1.64.09-.53.23-1.04.41-1.51.18-.47.41-.91.68-1.31.27-.4.59-.74.95-1.02.36-.29.77-.51,1.22-.67.45-.16.94-.24,1.48-.24.66,0,1.26.11,1.8.34.55.23,1.02.57,1.42,1.02.4.45.7,1.01.92,1.68s.33,1.45.33,2.33c0,.56-.05,1.11-.14,1.64s-.23,1.04-.41,1.51c-.18.47-.41.91-.68,1.31s-.59.74-.95,1.02c-.36.29-.77.51-1.22.67-.45.16-.94.24-1.48.24ZM92.78,73.43c.38,0,.72-.06,1.03-.19.31-.12.59-.3.83-.52.24-.22.45-.5.63-.82.18-.32.33-.68.44-1.07s.2-.82.26-1.27.09-.93.09-1.43c0-.89-.09-1.66-.26-2.31-.17-.65-.41-1.19-.71-1.62-.3-.43-.65-.75-1.05-.96s-.82-.32-1.27-.32c-.38,0-.72.06-1.03.19s-.59.3-.83.52-.45.5-.63.82c-.18.32-.33.68-.44,1.07-.12.39-.2.82-.26,1.27-.06.45-.09.93-.09,1.43,0,.89.09,1.66.26,2.31.17.65.41,1.19.71,1.62s.65.75,1.05.96c.4.21.82.32,1.27.32Z"/>
        <path d="M101.47,63.4c.15.27.32.56.51.89.19.33.39.67.61,1.04.22.36.44.74.67,1.13s.47.78.71,1.17.48.78.71,1.16.46.75.68,1.1c.22.35.43.68.63.99.2.31.38.58.54.82,0-.87,0-1.67,0-2.39,0-.72,0-1.36.02-1.94,0-.58.02-1.09.03-1.54s.03-.84.05-1.18c.02-.34.05-.62.07-.86.03-.24.06-.43.1-.58.03-.13.07-.24.12-.32.05-.09.12-.16.19-.21.07-.05.15-.09.23-.11.08-.02.17-.03.26-.03.22,0,.44.05.68.14v.05c-.16.22-.3.52-.41.88-.12.36-.21.76-.3,1.2s-.15.91-.2,1.4-.09.97-.12,1.45c-.03.48-.05.94-.07,1.39-.01.44-.03.84-.04,1.19,0,.31-.01.61-.02.9,0,.29-.01.58-.02.88,0,.29,0,.59-.01.88,0,.3,0,.61,0,.92l-.6.08h-.09c-.1-.15-.22-.33-.37-.56s-.32-.49-.51-.79-.39-.62-.61-.97c-.22-.35-.45-.72-.68-1.1-.24-.38-.48-.77-.72-1.17s-.49-.79-.73-1.18c-.24-.39-.47-.77-.7-1.14-.23-.37-.44-.72-.64-1.05-.2-.33-.38-.63-.54-.9-.16-.27-.3-.5-.42-.69,0,.72-.02,1.42-.03,2.11-.02.68-.03,1.34-.06,1.97-.02.63-.05,1.23-.08,1.79-.03.57-.06,1.09-.09,1.58-.02.34-.05.63-.07.88-.02.24-.05.44-.09.6-.03.16-.08.29-.13.38-.05.09-.11.17-.19.21s-.16.08-.27.09c-.1.01-.23.02-.37.02h-.13s-.06,0-.1,0c-.04,0-.09,0-.15,0l-.07-.05c.14-.32.26-.67.37-1.06.11-.39.2-.81.29-1.24.08-.44.15-.89.21-1.36.06-.47.11-.94.15-1.41.04-.47.07-.93.09-1.39.02-.45.04-.89.06-1.3.01-.41.02-.79.02-1.14,0-.35,0-.66,0-.92,0-.14-.01-.26-.03-.36-.02-.1-.06-.18-.12-.24-.06-.06-.13-.11-.23-.14-.1-.03-.23-.04-.38-.04-.11,0-.24,0-.37.02-.14.01-.3.03-.47.06l-.05-.43c.27-.06.52-.12.74-.17.22-.05.42-.09.6-.12.18-.03.34-.06.49-.08.15-.02.28-.03.39-.03s.23.02.32.04c.09.03.17.08.25.14s.15.15.22.26c.07.11.15.24.24.4Z"/>
        <path d="M115.01,62.3c.44,0,.85.04,1.22.11.37.08.69.17.96.28.27.11.48.23.63.36s.23.24.23.35c0,.23,0,.52-.03.88-.02.36-.04.79-.07,1.3h-.43c0-.06,0-.1,0-.14,0-.04,0-.09,0-.13,0-.23-.03-.44-.07-.65s-.13-.4-.26-.58c-.13-.19-.29-.35-.48-.49-.18-.14-.39-.26-.61-.35s-.46-.17-.71-.22c-.25-.05-.51-.07-.77-.07-.46,0-.87.07-1.24.21-.37.14-.7.33-1,.58-.29.25-.55.54-.76.87-.22.33-.39.7-.54,1.09s-.25.81-.32,1.24c-.07.43-.1.87-.1,1.31,0,.61.05,1.16.15,1.66.1.49.24.93.43,1.32.18.38.4.72.65.99.25.28.53.51.84.69.3.18.63.31.98.4.35.09.7.13,1.07.13.29,0,.54-.02.74-.06.2-.04.37-.1.49-.17s.22-.15.29-.25c.06-.1.1-.2.11-.31.03-.2.04-.41.05-.65,0-.24.01-.47.01-.7v-.44c0-.24-.02-.43-.05-.56-.03-.14-.1-.24-.19-.3s-.21-.11-.37-.12c-.16-.01-.36-.02-.62-.02h-.24s-.09,0-.15,0c-.06,0-.12,0-.2,0l-.03-.48c.05,0,.1,0,.14,0h.32c.22,0,.44,0,.68,0,.24,0,.47,0,.68-.01.21,0,.39,0,.54-.01.15,0,.25,0,.29,0,.18,0,.3.04.38.13.08.09.11.24.11.45,0,.13,0,.3-.01.5,0,.2-.02.43-.03.68s-.02.52-.03.8c-.01.29-.02.58-.03.88,0,.12-.01.22-.02.3-.01.08-.04.15-.07.2s-.07.1-.12.14c-.05.04-.12.08-.2.12-.09.05-.23.1-.4.16s-.37.11-.6.16-.48.09-.76.12c-.27.03-.56.05-.86.05-.4,0-.82-.03-1.24-.1-.42-.07-.83-.18-1.23-.35-.4-.16-.77-.38-1.13-.65-.35-.27-.66-.6-.92-1.01-.26-.4-.47-.88-.62-1.42-.15-.55-.23-1.18-.23-1.89,0-.51.05-1.02.16-1.53s.26-1,.48-1.47c.21-.47.48-.91.79-1.31s.69-.76,1.11-1.06c.42-.3.9-.54,1.43-.71.53-.17,1.12-.26,1.75-.26Z"/>
      </g>
    </g>
    <g>
      <path class="st0" d="M36.68,43.74c-1.05.18-1.91-.21-2.71-.86-.25-.21-.57-.34-.87-.47-.39-.18-.65-.04-.85.33-.11.21-.3.4-.48.56-.22.2-.47.37-.73.53-.82.49-1.66.96-2.47,1.46-.18.11-.32.3-.46.46-.19.23-.35.49-.56.7-.34.34-.71.64-1.06.96l.12.15c.73-.42,1.48-.82,2.19-1.28.53-.34,1.02-.76,1.53-1.13.15-.11.33-.16.5-.23-.05.18-.05.45-.17.54-.85.65-1.72,1.28-2.6,1.9-.86.6-1.79,1.05-2.82,1.28-.32.07-.42.28-.44.58-.02.33,0,.71-.55.53-.06-.02-.14.05-.22.08-1.51.57-2.51,1.72-3.27,3.07-.49.87-.78,1.85-1.18,2.77-.09.2-.28.35-.43.52-.14.15-.28.29-.42.44l.12.14c.15-.04.29-.12.44-.12.19,0,.45,0,.56.1.39.39.74.81,1.07,1.25.17.23.31.34.59.22.32-.14.66-.24.95-.42.46-.27.79-.26.93.31.22-.07.41-.12.65-.19v.62c.63-.76,1.3-1.33,1.59-2.18.1-.29.26-.59.6-.33.32.25.56.13.79-.06.95-.74,1.91-1.46,2.81-2.24.36-.31.62-.75.89-1.15.2-.29.37-.61.56-.92l-.13-.11c-.39.16-.77.33-1.3.56.11-.22.14-.41.25-.49.37-.29.77-.54,1.16-.81.09-.06.18-.16.28-.17.12-.01.25.05.37.08-.04.12-.05.26-.12.35-.09.11-.24.16-.36.24.78.42,1.22-.06,1.61-.57.25-.32.47-.67.68-1.03.53-.91,1.04-1.84,1.56-2.75.59-1.03,1.19-2.06,1.83-3.17-.22-.01-.33-.04-.44-.02ZM32.15,44.26c-.29.25-.59.49-.91.75-.14-.46.29-1.1.74-1.13.07,0,.18.06.21.13.03.07.01.2-.04.25ZM28.86,14.89c-.09-.17-.14-.42-.08-.57.1-.22.31-.4.49-.57.2-.19,1.39-.37,1.59-.25.3.18.7,1.09.62,1.47-.02.11-.1.24-.19.31-.17.12-.41.17-.56.31-.14.13-.21.34-.31.52-.51-.15-.54-.23-.34-.69.06-.15.13-.35.08-.48-.05-.13-.23-.23-.38-.27-.05-.01-.18.19-.24.32-.07.14-.11.31-.16.46-.25-.25-.44-.37-.53-.55ZM45.72,39.86c-.55-.13-1.18.07-1.63-.48-.55,1.14-.01,2.4-.44,3.6,1.12,0,2.26.22,3.21-.57.27-.23.4-.64.62-.94.13-.18.31-.34.49-.48.06-.04.24-.02.29.04.05.06.04.22,0,.29-.39.57-.76,1.18-1.22,1.69-.55.6-1.3.72-2.1.61-.34-.05-.69-.06-1.04-.05-.17,0-.33.1-.5.16,0,.05.01.09.02.14.24.03.49.04.72.09.29.06.58.18.87.23.26.04.53.04.8.04.41-.01.8-.01,1.17.25.23.16.57.33.77-.14.03-.07.22-.09.33-.11.38-.06.75-.12,1.13-.17.08,0,.17.04.28.06-.19.43-.49.59-.91.58-.43,0-.89-.08-1.23.4.22.1.43.2.64.3.49.24.52.32.26.79-.04.06-.07.13-.15.26.68.1.94-.64,1.6-.61-.09.22-.11.45-.24.57-.5.46-.87,1.09-1.58,1.32-.23.08-.39.35-.6.54-.08-.05-.19-.11-.3-.18-.55-.34-.76-.32-1.13.22-.09.13-.12.37-.06.5.15.32.07.53-.15.77-.42.45-.87.88-1.21,1.39-.24.36-.37.83-.47,1.27-.12.52-.15,1.06-.23,1.72.26-.08.49-.08.62-.19,1.62-1.32,3.16-2.73,4.42-4.41.15-.2.36-.34.54-.51.05.03.1.06.16.1-.03.15-.01.34-.09.45-.27.39-.55.77-.87,1.12-.77.86-1.59,1.68-2.35,2.54-.68.76-1.53,1.27-2.44,1.68-.2.09-.46.06-.76.08.05.17.09.32.16.47.04.1.15.17.19.27.11.24.14.65.3.7.34.11.74.03,1.04.03.14-.3.21-.57.37-.74.24-.26.55-.28.85-.05.33.25.67.47,1.01.71.82.58,2.02.52,2.74-.14.25-.23.24-.52.08-.83-.39.01-.4,1.13-1.08.27,1.05-.67,1.23-2.29,1.65-3.34h0c.01-.05.02-.09.02-.11.28-1.06.56-2.12.85-3.18,0-.03,0-.07.02-.09.55-.53.28-1.21.39-1.83.08-.46.26-.93.5-1.33.57-.92.66-1.83.1-2.76-.27-.45-.51-.87-1.06-1.14-.48-.23-.83-.76-1.21-1.18-.29-.33-.54-.38-.86-.04-.13.14-.34.23-.53.3-.08.03-.26-.03-.29-.1-.04-.08,0-.24.07-.32.09-.13.28-.2.32-.33.06-.19.09-.44.01-.61-.06-.13-.33-.24-.48-.22-.45.06-.85.01-1.18-.39-.31.49-.38,1.24-1.21,1.04ZM49.71,45.42c.28-.44.56-.88.87-1.3.06-.08.24-.06.36-.09,0,.13.03.27-.02.37-.27.52-.53,1.06-1.21,1.24,0-.11-.02-.18,0-.22ZM21.96,58.69c.1.17.2.34.34.57-1.59.59-3.03.19-4.44-.56,0,0-.02-.03-.02-.05q.14-1.01,1.17-.95c.19.01.38.01.57,0,.36-.02.59.15.76.46.42.81.73.92,1.61.53ZM29.42,19c-.4-.59-.76-1.2-1.13-1.8l.16-.12c.15.18.3.36.45.54.24.29.47.6.71.88.28.33.57.35.95.08.2-.14.51-.12.78-.17l.06.16c-.22.2-.41.43-.65.59-.69.44-.97.36-1.33-.16ZM46.59,44.91h-2.51c.35-.28,1.85-.27,2.51,0ZM46.5,56.69c.26.17.54.33.81.49-.02.04-.04.09-.06.13-.71,0-1.43-.05-2.13.01-.67.06-1.45-.28-1.97.49l-.12-.07c-.02-.22-.04-.45-.05-.69.22-.03.39-.04.56-.07.69-.12,1.39-.18,2.05-.38.36-.11.62-.12.91.08ZM31.69,42.15c-.12,0-.24.06-.47.11.13-1.42,1.13-2.23,1.77-3.24.07.02.14.04.22.06-.06.46-.1.93-.18,1.39-.04.26-.16.51-.22.77-.18.74-.32.86-1.12.91ZM44.94,45.74c0-.07.07-.19.09-.18.09.02.19.06.27.12.06.05.09.13.13.2.17.32.33.63.53,1.02-.41-.11-1.03-.87-1.02-1.16ZM50.47,57.19c.27.16.63.16.96.24-.41.5-.66.5-1.09.06-.08-.09-.28-.12-.41-.1-.46.07-.92.18-1.42.28-.08-.41.06-.61.41-.65.53-.07,1.04-.13,1.56.17ZM30.78,17.12c.27-.23.57-.42.97-.7,0,.32.04.5,0,.66-.05.18-.14.44-.27.48-.22.06-.48-.01-.72-.06-.02,0-.04-.31.03-.38ZM43.57,14.51c-.18-.09-.32-.29-.44-.48-.06-.09,0-.25,0-.43-.38.22-.52.41-.36.8.12.3.1.66.16,1.08-.89-.26-1.11.34-1.39.87.8.57,1.59,1.13,2.24,1.6.77-.45,1.44-.84,2.12-1.24-.02-.05-.06-.15-.12-.25-.25-.43-.4-.82.1-1.21.11-.08.12-.38.07-.55-.11-.4-.03-.62.41-.64.1,0,.19-.05.35-.09-.28-.23-.51-.41-.73-.59-.13.17-.23.31-.34.44-.48-.41-.51-.73-.16-1.13-.13-.15-.36-.28-.36-.42,0-.13.21-.31.37-.39.26-.14.23-.31.1-.5-.27-.37-.54-.74-.82-1.11-.22-.29-.49-.36-.91-.15.16.11.25.2.36.24.45.17.52.51.42.92-.07.29-.2.56-.28.85-.12.43-.37.88-.3,1.28.05.3.06.52-.03.79-.09.24-.22.43-.47.31ZM43.62,16.79c-.39.02-.8-.55-.65-1.06.3.25.59.46.83.71.15.16.07.33-.18.35ZM60.97,20.07c-.62.1-.69.11-.69-.55,0-.26,0-.52,0-.78-.17.03-.21.06-.24.09-.5.67-1.05,1.22-1.98,1.21-.18,0-.37.15-.56.22-.41.16-.81.39-1.24.43-.6.06-.87.22-1.06.8-.09.27-.3.5-.45.75-.1.16-.19.33-.29.49-.01.02-.04.03-.08.05-.11-.06-.23-.13-.29-.16-.28.15-.51.27-.74.38-.04-.05-.08-.1-.12-.15.22-.35.45-.7.7-1.08-.33-.15-.62-.3-.92-.42-.47-.18-1.02-.24-1.41-.53-.79-.58-1.64-.44-2.51-.43v2.47c.2-.08.36-.15.52-.21.29.67.17,1.09-.39,1.39.21.38.01.66-.2.98-.2.3-.33.65-.49.98.03.02.07.04.1.05.79-.58,1.58-1.17,2.36-1.74.17.2.27.31.37.43.26-.19.48-.36.72-.51.07-.04.23-.02.28.04.05.05.05.21,0,.28-.07.12-.18.21-.29.3-.23.17-.46.33-.7.48-.45.29-.91.55-1.36.84-.17.11-.31.26-.5.42,1.19.44,1.9-.34,2.63-.86.46-.33.8-.74,1.43-.6-.1-.28-.26-.51-.22-.69.07-.33.23-.65.4-.96.07-.13.29-.29.37-.26.14.06.33.29.3.38-.09.29-.28.56-.44.85.07.26.16.61.28.95.04.12.12.26.23.33.39.24.78.48,1.19.69.38.2.76.13,1.13-.09.25-.15.53-.25.81-.35.82-.28,1.61-.61,2.1-1.39.05-.08.24-.14.32-.11.2.08.37.23.56.33.16.08.34.2.49.18.09-.01.18-.27.2-.43.04-.41.06-.82.04-1.23,0-.09-.15-.22-.26-.26-.38-.14-.84-.71-.82-1.11,0-.18.1-.35.18-.62.21.24.34.38.54.61-.06-.41-.13-.69-.13-.96,0-.16.1-.35.2-.47.03-.04.27.07.38.15.1.07.16.19.31.38.15-.2.26-.33.34-.48.04-.08.04-.28.03-.28-.39-.1-.8-.29-1.16-.23ZM59.47,20.68c-.11.92-.12,1.86-.61,2.71-.25.43-.38.93-.61,1.37-.11.2-.34.34-.52.5-.16.14-.36.26-.49.42-.19.24-.36.29-.57.02.42-.44.85-.88,1.3-1.36-.38-.17-.33-.45-.19-.78.32-.73.4-1.59,1.34-2.01-.25-.2-.38-.3-.56-.44.66-.22.14-.69.21-1.06.48-.03.75.15.69.61ZM62.8,17.18c.25.28.6.84.89,1.13-.27.3-.7.8-.76.83-.25.11-.51.24-.73.4-.3.21-.35.21-.65-.11.11-.09.21-.17.34-.28-.24-.18-.45-.34-.62-.47v-1.13s.07-.04.1-.06c.23.25.46.49.71.75.16-.19.29-.34.44-.52.09.23.16.42.25.63.16-.06.3-.12.59-.23-.45-.39-.82-.7-1.21-1.04,0,0,.01-.02.02-.03.06-.11.12-.22.17-.33-.12-.02-.24-.07-.35-.06-.45.06-.68-.21-1-.63.36-.05.64-.09.92-.12.06-.13.14-.29.23-.48.11.23.21.42.3.61.05,0,.09,0,.14,0,.08-.25.16-.5.23-.74.49.35.57.83.18,1.07-.38.23-.46.49-.18.81ZM53.65,25.53c.14.16.29.34.43.51-.14.27-.28.53-.42.78-.04.08-.11.17-.19.2-.73.26-1.47.32-2.21-.03.78-.48,1.53-.93,2.39-1.46ZM40.09,11.01c.05-.5.3-.63.69-.71.33-.07.62-.3.94-.44.13-.06.37-.15.41-.1.4.51.86.91,1.68.96-.43.48-.76.86-1.13,1.28-.11-.18-.2-.31-.32-.5-.26.19-.51.36-.81.58.01-.16.02-.28.04-.41.03-.27.09-.55-.35-.42-.05.01-.15,0-.17-.04-.21-.46-.57-.32-.98-.2ZM48.19,23.5c-.03-.45-.27-.93.24-1.3.42.55-.08.9-.24,1.3ZM47.82,23.88c-.37-.6-.05-2.74.49-3.18.3-.24.42-.5.24-.9-.38.15-.69.15-1.04-.19-.2-.2-.64-.16-.97-.24-.32-.08-.65-.15-.97-.26-.38-.13-.75-.3-1.12-.45-.03.05-.05.1-.08.15.05.05.09.1.14.15.12.11.23.22.35.33-.13.13-.23.3-.38.38-.57.3-1.16.26-1.71-.07-.11-.06-.2-.25-.19-.37,0-.09.17-.18.28-.24.19-.1.39-.18.59-.27-.13-.22-.21-.51-.4-.65-.75-.6-1.54-1.15-2.32-1.73-.17.24-.41.49-.54.8-.24.56-.84.59-1.23.92-.11.09-.33.08-.5.08-1.15-.04-2.31-.08-3.46-.15-.43-.03-.58.15-.58.54,0,.43-.09.86.27,1.24.16.17.12.51.18.77.08.32.15.62.61.55.1-.02.3.2.35.35.05.15.02.39-.08.5-.07.08-.39.07-.46-.02-.3-.35-.55-.74-.8-1.13-.08-.13-.11-.3-.16-.46-.05,0-.09,0-.14,0-.07.39-.13.77-.2,1.16-.03.02-.06.04-.09.06-.05-.13-.14-.26-.14-.4-.03-.52,0-1.05-.05-1.57-.02-.18-.17-.37-.3-.52-.34-.39-.67-.77-.65-1.33,0-.18-.02-.36-.04-.55-.07-.01-.14-.03-.22-.04-.39.94-.78,1.89-1.18,2.86-.25-.36-.52-.29-.89-.11-.25.12-.62-.02-.94-.06-.27-.03-.54-.09-.82-.14.14.24.25.51.42.73.17.22.4.41.6.61.31.31.53.57.48,1.12-.05.55.37,1.09.91,1.41.63.37,1.27.71,1.9,1.06.08.05.15.12.22.18.74.62,1.32.49,1.79-.38.22-.39.48-.77.77-1.11.1-.12.39-.16.56-.12.45.12.6-.09.69-.47.09-.38.18-.77.31-1.14.12-.35.29-.69.45-1.07.26.35.32.69.14,1.09-.07.15-.11.33-.12.5-.06.63-.08,1.26-.18,1.88-.04.26-.25.49-.39.73-.16.26-.33.52-.42.85.36-.12.71-.24,1.18-.4-.39.85-1.14.96-1.78,1.25-.2-.1-.44-.21-.84-.4.42,1.49.97,2.84.6,4.34-.45-.24-.55-.56-.55-.94,0-.47.02-.95-.02-1.42-.02-.18-.16-.35-.25-.53-.06.02-.12.04-.18.06-.01.13-.04.27-.04.4.03,1.04.08,2.09.09,3.13,0,.22-.15.44-.23.67-.07,0-.13-.02-.2-.03-.07-.32-.15-.63-.22-.95-.04,0-.08-.01-.12-.02-.04.11-.11.22-.12.33-.02.32-.02.63-.02.95,0,.28.03.55-.39.55-.08,0-.19.19-.24.31-.16.41-.34.82-.43,1.25-.11.53-.1,1.09-.19,1.62-.21,1.25-.66,2.42-1.32,3.51-.17.28-.29.58-.43.87.05.06.11.11.16.17.14-.09.32-.14.4-.27.53-.77,1.06-1.53,1.54-2.33.18-.31.22-.71.33-1.08.41.14.64.22.44.74-.2.49-.11,1.09-.2,1.63-.13.78-.48,1.53-.34,2.36.05.3.1.5.4.66.49.28.89.7,1.39.97.34.19.77.28,1.16.3.87.04,1.74,0,2.61.02.19,0,1.17-.11,1.7-.13-.01,0-.02-.01-.03-.02.41-.31.74-.23.98-.01.35.32.72.2,1.07.11.11-.03.15-.35.21-.54.05-.18.03-.46.14-.53.32-.22.22-.44.17-.74-.17-1.13-.19-2.26.46-3.44.08.5.14.86.22,1.28.4-.17.71-.14,1.07.07.21.12.65-.02.92-.17.1-.06-.01-.48-.02-.73-.03-.78-.06-1.56-.08-2.35,0-.07.05-.15.09-.21.72-.88.83-1.95.94-3.03.09-.89.23-1.78.33-2.68.07-.6.06-1.2.17-1.79.1-.56.3-1.1.45-1.65.04-.14.12-.34.06-.44-.32-.49-.1-.92.13-1.33.2-.36.24-.68-.1-.97-.03-.03-.06-.07-.08-.11ZM34.88,33.49c-.19,0-.38.01-.57.02.01-.13.02-.27.04-.4.19.04.37.09.56.13,0,.09-.02.17-.03.26ZM43.94,37.6c-.35-.7.05-1.35-.01-2,.38.35.37,1.5.01,2ZM44.77,35.04c-.1.11-.32.18-.48.16-.3-.04-.61-.11-.89-.24-.2-.09-.34-.29-.51-.45.17-.09.34-.18.52-.26.08-.04.18-.04.34-.07.28.12.62.23.93.42.09.06.15.37.09.44ZM44.72,31.69s-.03-.1-.05-.15c-.46-.07-.92-.11-1.37-.22-.11-.03-.21-.27-.24-.43-.01-.06.2-.23.29-.22.5.08.99.18,1.48.32.13.04.21.22.31.34-.14.12-.28.24-.42.36ZM43.02,27.28c.14-.09.29-.19.36-.23.53.08.96.12,1.37.23.14.04.25.23.37.35-.16.08-.33.24-.48.23-.44-.03-.88-.11-1.31-.22-.13-.03-.21-.23-.31-.36ZM44.71,23.77c-.53-.05-1.06-.18-1.66-.29.52-.51,1.34-.56,2.19.02-.18.1-.36.28-.53.27Z"/>
      <g>
        <path d="M42.98,15.73c-.15.5.26,1.08.65,1.06.25-.01.33-.18.18-.35-.23-.26-.53-.46-.83-.71Z"/>
        <path d="M34.31,33.5c.19,0,.38-.01.57-.02,0-.09.02-.17.03-.26-.19-.04-.37-.09-.56-.13-.01.13-.02.27-.04.4Z"/>
        <path d="M58.78,20.07c-.07.37.45.84-.21,1.06.18.14.31.25.56.44-.94.42-1.02,1.28-1.34,2.01-.14.33-.2.6.19.78-.45.47-.87.91-1.3,1.36.21.26.37.22.57-.02.13-.16.33-.28.49-.42.18-.16.41-.3.52-.5.24-.44.36-.94.61-1.37.49-.85.5-1.79.61-2.71.06-.46-.21-.65-.69-.61Z"/>
        <path d="M63.9,16.1c-.12-.63-.29-1.23-.11-1.87-1.02-.31-2.03-.19-3.02.07-.04,1.07-.11,2.17-.13,3.26,0,.43-.11.68-.56.78-.22.05-.47.18-.6.35-.36.5-.88.61-1.43.74-.41.09-.79.3-1.18.45-.29.11-.57.24-.86.34-.19.07-.41.07-.6.14-.33.12-.62.18-.94-.06-.09-.07-.3-.04-.43.01-.26.11-.5.28-.76.39-.14.06-.34.09-.48.04-.67-.23-1.36-.43-1.98-.76-.65-.34-1.42.03-2.01-.44-.45.18-.67-.22-1-.37-.29-.13-.63-.19-.94-.28-.76-.2-1.52-.41-2.28-.61,0-.07,0-.14,0-.21.38-.21.74-.45,1.14-.62.61-.25.77-.46.71-1.09-.07-.67.07-1.27.46-1.84.11-.16.09-.47.02-.68-.08-.23-.32-.39-.44-.61-.09-.16-.09-.37-.12-.55-.03-.29.03-.63-.09-.87-.47-.92-.99-1.82-1.51-2.71-.06-.1-.23-.19-.36-.19-.62-.02-1.27-.13-1.84.03-.76.2-1.53.52-2.17.97-1.12.78-1.63,2.71-1.2,4.02.17.5.26,1.05.52,1.5.28.48.4.93.14,1.42-.26.51-.76.66-1.28.66-1.33,0-2.66-.03-3.98-.07-.78-.02-1.22-.42-1.44-1.15-.12-.4-.28-.77-.73-.93-.09-.03-.16-.18-.19-.28-.21-.57-.36-1.17-.61-1.72-.3-.64-1.52-.91-2.04-.45-.48.43-.93.91-1.32,1.42-.37.49-.57,1.09-.26,1.69.18.34.11.62,0,.95-.21.6-.27,1.19.11,1.77.08.13.13.36.06.49-.29.59.04.97.37,1.4.29.38.56.81.73,1.25.31.82.73,1.54,1.4,2.11.15.13.35.21.53.29.32.14.66.24.97.41.26.14.48.36.73.53.35.23.71.57,1.09.61.45.05.44.22.41.54-.06.5-.16,1.01-.13,1.51.04.78-.17,1.5-.39,2.23-.36,1.15-.75,2.3-1.07,3.46-.2.72-.24,1.49-.46,2.21-.36,1.17-.79,2.33-1.25,3.47-.1.26-.4.5-.67.61-.65.28-.77.51-.43,1.14.35.66.18,1.3-.41,1.71-.18.13-.33.38-.39.6-.06.27-.07.58,0,.85.11.38-.08.49-.36.56-.15.04-.31.07-.47.06-.49-.02-.74.22-.9.67-.08.24-.23.5-.43.64-.79.55-1.17,1.55-2.13,1.9-.04.01-.06.07-.09.11-.58.93-1.44,1.52-2.36,2.08-.37.23-.64.62-.94.96-.17.19-.29.41-.44.61-.32.41-.8.78-.92,1.24-.32,1.24-1.41,1.98-1.83,3.13-.2.53-.46,1.03-.75,1.51-.31.5-.25,1.36-1.19,1.32-.05,0-.11.09-.23.19.23.07.4.13.58.18.3.09.63.14.9.29.88.5,1.82.7,2.82.69.87,0,1.74.02,2.61-.01.24,0,.52-.11.68-.27.07-.07-.1-.39-.13-.51.75-.6,1.62-1.12,2.24-1.85.84-.99,1.98-1.54,2.92-2.36.46-.4.95-.77,1.37-1.21.7-.76,1.29-1.64,2.31-2.06.19-.08.38-.25.49-.43.88-1.34,1.8-2.67,2.6-4.06.59-1.03,1.27-1.95,2.18-2.7.22-.18.42-.39.57-.63.23-.36.52-.52.94-.51.16,0,1.37-.22,1.54-.26.12-.04.2-.06.26-.09.18.09.34.17.5.26.13.08.26.17.36.28.24.23.43.55.71.7.85.46,1.66.95,2.09,1.84.34.71,1.15,1.37.36,2.27-.04.04-.05.12-.04.18.05.54-.21.93-.6,1.27-.4.35-.67.76-.6,1.32.01.11-.05.24-.1.35-.11.25-.27.49-.32.75-.14.69-.34,1.34-.83,1.88-.26.29-.23.59.06.88.08.08.11.27.09.39-.07.48-.2.95-.23,1.43-.03.34-.13.48-.48.47-.66-.02-1.33-.02-1.99,0-.19,0-.38.1-.59.16.24.39.5.45.84.38.32-.06.66-.12.98-.1.86.05,1.71.2,2.57.22,1.36.03,2.72-.01,4.08-.02.12,0,.27,0,.37.07.69.44,1.37.41,2.08.05.13-.07.3-.09.46-.1.66-.04,1.33-.05,1.99-.11.16-.02.31-.2.46-.3-.14-.08-.28-.2-.43-.24-.15-.04-.32.03-.47,0-.13-.03-.33-.13-.35-.23-.09-.36-.36-.44-.65-.53-.38-.11-.76-.24-1.14-.36.24-.59.37-2.41.28-3.51.29-.47.48-1.21.56-1.46.28-.94.51-1.9.77-2.85.26-.95.52-1.9.78-2.86.06-.21.08-.45.2-.62.55-.78.46-1.54,0-2.3-.42-.68-.83-1.32-1.5-1.84-.79-.61-1.4-1.43-2.08-2.17-.08-.08-.1-.23-.14-.34-.12-.4-.32-.46-.65-.19-.15.12-.3.23-.46.34-.05-.02-.11-.04-.16-.06,0-.39-.02-.77,0-1.16.03-.43-.11-.73-.47-.96-.51-.32-.67-.89-.47-1.44.21-.57.47-1.14.54-1.73.18-1.44.25-2.89.39-4.33.05-.45.17-.89.33-1.31.05-.13.3-.26.46-.27.53-.03,1.07-.01,1.6,0,.15,0,.31.05.46.11,1.18.45,2.3.57,3.4-.27.3-.23.85-.42,1.18-.3.9.31,1.63.16,2.33-.42.05-.04.11-.06.17-.08.99-.32,1.96-.68,2.96-.94.86-.22,1.57-.83,1.61-1.78.03-.65,0-1.28.25-1.89.02-.04,0-.1-.02-.13-.31-.42-.05-.73.17-1.07.23-.36.44-.73.62-1.11.05-.1.62-1.21.64-1.43,0-.01,0-.02,0-.03,0-.62.08-1.38-.03-1.99ZM44.08,13.41c-.07-.4.18-.85.3-1.28.08-.29.21-.56.28-.85.1-.4.03-.75-.42-.92-.11-.04-.21-.13-.36-.24.41-.21.69-.14.91.15.28.36.55.73.82,1.11.14.19.17.36-.1.5-.16.09-.37.26-.37.39,0,.14.23.28.36.42-.35.4-.32.72.16,1.13.1-.14.21-.27.34-.44.22.18.44.36.73.59-.16.04-.26.09-.35.09-.44.02-.52.24-.41.64.05.17.03.47-.07.55-.5.39-.35.78-.1,1.21.05.09.09.2.12.25-.69.4-1.36.79-2.12,1.24-.65-.46-1.44-1.03-2.24-1.6.28-.53.5-1.13,1.39-.87-.06-.42-.04-.78-.16-1.08-.16-.39-.02-.58.36-.8,0,.18-.05.34,0,.43.11.18.25.39.44.48.25.12.39-.07.47-.31.09-.27.09-.49.03-.79ZM40.78,10.3c.33-.07.62-.3.94-.44.13-.06.37-.15.41-.1.4.51.86.91,1.68.96-.43.48-.76.86-1.13,1.28-.11-.18-.2-.31-.32-.5-.26.19-.51.36-.81.58.01-.16.02-.28.04-.41.03-.27.09-.55-.35-.42-.05.01-.15,0-.17-.04-.21-.46-.57-.32-.98-.2.05-.5.3-.63.69-.71ZM31.76,16.42c0,.32.04.5,0,.66-.05.18-.14.44-.27.48-.22.06-.48-.01-.72-.06-.02,0-.04-.31.03-.38.27-.23.57-.42.97-.7ZM28.78,14.32c.1-.22.31-.4.49-.57.2-.19,1.39-.37,1.59-.25.3.18.7,1.09.62,1.47-.02.11-.1.24-.19.31-.17.12-.41.17-.56.31-.14.13-.21.34-.31.52-.51-.15-.54-.23-.34-.69.06-.15.13-.35.08-.48-.05-.13-.23-.23-.38-.27-.05-.01-.18.19-.24.32-.07.14-.11.31-.16.46-.25-.25-.44-.37-.53-.55-.09-.17-.14-.42-.08-.57ZM28.28,17.2l.16-.12c.15.18.3.36.45.54.24.29.47.6.71.88.28.33.57.35.95.08.2-.14.51-.12.78-.17l.06.16c-.22.2-.41.43-.65.59-.69.44-.97.36-1.33-.16-.4-.59-.76-1.2-1.13-1.8ZM17.87,58.7s-.02-.03-.02-.05q.14-1.01,1.17-.95c.19.01.38.01.57,0,.36-.02.59.15.76.46.42.81.73.92,1.61.53.1.17.2.34.34.57-1.59.59-3.03.19-4.44-.56ZM35.29,46.93c-.52.92-1.03,1.84-1.56,2.75-.21.35-.43.7-.68,1.03-.4.51-.83.99-1.61.57.12-.07.27-.13.36-.24.08-.09.08-.23.12-.35-.12-.03-.25-.09-.37-.08-.1,0-.19.11-.28.17-.39.27-.79.52-1.16.81-.11.08-.14.27-.25.49.53-.23.92-.39,1.3-.56l.13.11c-.18.31-.35.63-.56.92-.28.4-.53.84-.89,1.15-.91.78-1.87,1.51-2.81,2.24-.24.18-.47.3-.79.06-.34-.26-.5.04-.6.33-.29.85-.96,1.42-1.59,2.18v-.62c-.25.07-.43.13-.65.19-.15-.57-.47-.58-.93-.31-.29.18-.64.28-.95.42-.27.12-.42.01-.59-.22-.33-.44-.68-.86-1.07-1.25-.11-.11-.37-.11-.56-.1-.15,0-.29.08-.44.12l-.12-.14c.14-.15.29-.29.42-.44.15-.17.35-.32.43-.52.41-.92.69-1.9,1.18-2.77.76-1.34,1.76-2.5,3.27-3.07.07-.03.16-.1.22-.08.54.19.53-.2.55-.53.02-.31.12-.51.44-.58,1.03-.23,1.96-.68,2.82-1.28.88-.61,1.75-1.24,2.6-1.9.12-.09.12-.36.17-.54-.17.08-.35.13-.5.23-.52.37-1,.79-1.53,1.13-.71.46-1.46.85-2.19,1.28l-.12-.15c.35-.32.72-.62,1.06-.96.21-.21.37-.47.56-.7.14-.17.28-.35.46-.46.82-.5,1.65-.97,2.47-1.46.26-.15.5-.33.73-.53.18-.16.37-.35.48-.56.2-.37.46-.51.85-.33.3.14.62.27.87.47.79.65,1.65,1.04,2.71.86.11-.02.22,0,.44.02-.64,1.1-1.24,2.13-1.83,3.17ZM31.22,42.26c.13-1.42,1.13-2.23,1.77-3.24.07.02.14.04.22.06-.06.46-.1.93-.18,1.39-.04.26-.16.51-.22.77-.18.74-.32.86-1.12.91-.12,0-.24.06-.47.11ZM44.08,44.91c.35-.28,1.85-.27,2.51,0h-2.51ZM44.94,45.74c0-.07.07-.19.09-.18.09.02.19.06.27.12.06.05.09.13.13.2.17.32.33.63.53,1.02-.41-.11-1.03-.87-1.02-1.16ZM47.25,57.31c-.71,0-1.43-.05-2.13.01-.67.06-1.45-.28-1.97.49l-.12-.07c-.02-.22-.04-.45-.05-.69.22-.03.39-.04.56-.07.69-.12,1.39-.18,2.05-.38.36-.11.62-.12.91.08.26.17.54.33.81.49-.02.04-.04.09-.06.13ZM50.47,57.19c.27.16.63.16.96.24-.41.5-.66.5-1.09.06-.08-.09-.28-.12-.41-.1-.46.07-.92.18-1.42.28-.08-.41.06-.61.41-.65.53-.07,1.04-.13,1.56.17ZM46.93,38.81c.33.4.73.44,1.18.39.16-.02.42.09.48.22.08.16.05.42-.01.61-.04.13-.23.21-.32.33-.06.09-.1.24-.07.32.03.07.21.13.29.1.19-.07.4-.15.53-.3.32-.35.57-.29.86.04.38.42.73.95,1.21,1.18.55.26.79.69,1.06,1.14.57.93.48,1.84-.1,2.76-.25.4-.42.87-.5,1.33-.11.62.16,1.3-.39,1.83-.02.02,0,.06-.02.09-.28,1.06-.57,2.12-.85,3.18,0,.02-.01.06-.02.11h0c-.42,1.06-.6,2.67-1.65,3.34.68.86.69-.26,1.08-.27.16.31.17.6-.08.83-.71.66-1.91.72-2.74.14-.34-.24-.68-.46-1.01-.71-.31-.23-.62-.2-.85.05-.16.18-.23.44-.37.74-.3,0-.7.07-1.04-.03-.16-.05-.19-.46-.3-.7-.04-.1-.15-.17-.19-.27-.07-.15-.1-.3-.16-.47.3-.03.55,0,.76-.08.91-.41,1.76-.92,2.44-1.68.77-.86,1.58-1.68,2.35-2.54.32-.35.6-.73.87-1.12.08-.12.06-.3.09-.45-.05-.03-.1-.06-.16-.1-.18.17-.4.32-.54.51-1.26,1.69-2.8,3.09-4.42,4.41-.14.11-.37.12-.62.19.08-.66.12-1.2.23-1.72.1-.44.22-.9.47-1.27.34-.51.79-.94,1.21-1.39.22-.23.3-.45.15-.77-.06-.13-.03-.38.06-.5.36-.53.58-.56,1.13-.22.11.07.22.13.3.18.21-.2.37-.47.6-.54.71-.24,1.08-.86,1.58-1.32.13-.12.15-.35.24-.57-.67-.02-.93.71-1.6.61.08-.14.11-.2.15-.26.26-.47.23-.55-.26-.79-.21-.1-.41-.2-.64-.3.33-.48.79-.41,1.23-.4.42,0,.72-.15.91-.58-.11-.03-.2-.07-.28-.06-.38.05-.76.11-1.13.17-.12.02-.31.04-.33.11-.19.47-.54.3-.77.14-.37-.26-.76-.27-1.17-.25-.26,0-.54,0-.8-.04-.29-.05-.58-.17-.87-.23-.24-.05-.48-.06-.72-.09,0-.05-.01-.09-.02-.14.17-.06.33-.15.5-.16.35-.01.7,0,1.04.05.8.11,1.55,0,2.1-.61.47-.51.83-1.11,1.22-1.69.05-.07.05-.23,0-.29-.05-.06-.23-.09-.29-.04-.18.14-.36.29-.49.48-.22.3-.34.71-.62.94-.95.79-2.09.57-3.21.57.43-1.2-.1-2.46.44-3.6.45.55,1.09.35,1.63.48.83.19.9-.55,1.21-1.04ZM48,24.97c-.23.41-.45.84-.13,1.33.06.09-.02.29-.06.44-.15.55-.35,1.09-.45,1.65-.1.59-.1,1.2-.17,1.79-.1.89-.25,1.78-.33,2.68-.1,1.08-.21,2.15-.94,3.03-.05.06-.1.14-.09.21.02.78.05,1.56.08,2.35,0,.26.12.68.02.73-.26.15-.71.29-.92.17-.36-.21-.67-.24-1.07-.07-.07-.42-.13-.79-.22-1.28-.65,1.19-.63,2.31-.46,3.44.05.3.15.52-.17.74-.11.08-.09.35-.14.53-.06.19-.1.51-.21.54-.35.09-.72.21-1.07-.11-.23-.21-.56-.3-.98.01.01,0,.02.01.03.02-.53.03-1.51.14-1.7.13-.87-.01-1.74.02-2.61-.02-.39-.02-.82-.11-1.16-.3-.49-.27-.9-.69-1.39-.97-.3-.17-.35-.36-.4-.66-.14-.83.21-1.58.34-2.36.09-.54,0-1.14.2-1.63.21-.52-.02-.61-.44-.74-.11.37-.15.77-.33,1.08-.48.8-1.01,1.57-1.54,2.33-.08.12-.26.18-.4.27-.05-.06-.11-.11-.16-.17.14-.29.26-.59.43-.87.66-1.09,1.11-2.26,1.32-3.51.09-.54.09-1.09.19-1.62.09-.43.27-.84.43-1.25.05-.12.16-.31.24-.31.42,0,.39-.27.39-.55,0-.32,0-.63.02-.95,0-.11.08-.22.12-.33.04,0,.08.01.12.02.07.32.15.63.22.95.07,0,.13.02.2.03.08-.22.23-.45.23-.67,0-1.04-.06-2.09-.09-3.13,0-.13.03-.27.04-.4.06-.02.12-.04.18-.06.09.18.24.35.25.53.04.47.03.95.02,1.42,0,.39.1.71.55.94.37-1.51-.19-2.86-.6-4.34.4.19.64.31.84.4.65-.29,1.39-.4,1.78-1.25-.47.16-.82.28-1.18.4.09-.33.27-.59.42-.85.14-.24.35-.47.39-.73.1-.62.12-1.25.18-1.88.02-.17.05-.34.12-.5.18-.4.12-.74-.14-1.09-.16.37-.32.71-.45,1.07-.13.37-.23.75-.31,1.14-.09.38-.24.59-.69.47-.17-.04-.46,0-.56.12-.3.34-.55.72-.77,1.11-.47.87-1.05,1-1.79.38-.07-.06-.14-.13-.22-.18-.63-.36-1.27-.7-1.9-1.06-.54-.31-.95-.86-.91-1.41.05-.55-.17-.81-.48-1.12-.2-.2-.43-.38-.6-.61-.17-.22-.29-.48-.42-.73.27.05.54.11.82.14.32.04.69.18.94.06.38-.18.64-.25.89.11.4-.97.79-1.91,1.18-2.86.07.01.14.03.22.04.01.18.04.36.04.55-.02.57.31.95.65,1.33.13.15.28.34.3.52.05.52.02,1.04.05,1.57,0,.14.09.27.14.4.03-.02.06-.04.09-.06.07-.39.13-.77.2-1.16.05,0,.09,0,.14,0,.05.15.07.32.16.46.25.39.51.78.8,1.13.07.09.39.1.46.02.1-.11.13-.35.08-.5-.05-.14-.25-.36-.35-.35-.46.07-.54-.23-.61-.55-.06-.26-.03-.6-.18-.77-.36-.38-.27-.81-.27-1.24,0-.39.15-.56.58-.54,1.15.07,2.31.11,3.46.15.17,0,.39.02.5-.08.39-.33.99-.37,1.23-.92.13-.3.38-.56.54-.8.78.58,1.56,1.13,2.32,1.73.19.15.27.43.4.65-.2.09-.4.16-.59.27-.11.06-.28.16-.28.24,0,.12.09.31.19.37.55.33,1.14.36,1.71.07.15-.08.26-.25.38-.38-.12-.11-.24-.22-.35-.33-.05-.05-.09-.1-.14-.15.03-.05.05-.1.08-.15.37.15.74.32,1.12.45.31.11.64.18.97.26.33.08.77.04.97.24.34.34.66.35,1.04.19.18.4.06.65-.24.9-.55.44-.86,2.58-.49,3.18.02.04.05.08.08.11.33.3.3.61.1.97ZM48.43,22.19c.42.55-.08.9-.24,1.3-.03-.45-.27-.93.24-1.3ZM53.66,26.82c-.04.08-.11.17-.19.2-.73.26-1.47.32-2.21-.03.78-.48,1.53-.93,2.39-1.46.14.16.29.34.43.51-.14.27-.28.53-.42.78ZM62.1,20.58c-.08.15-.2.28-.34.48-.15-.19-.21-.32-.31-.38-.12-.08-.35-.18-.38-.15-.11.13-.2.31-.2.47,0,.28.07.56.13.96-.21-.23-.33-.37-.54-.61-.08.27-.17.44-.18.62-.02.39.44.97.82,1.11.11.04.25.17.26.26.01.41,0,.82-.04,1.23-.02.16-.11.42-.2.43-.15.02-.34-.1-.49-.18-.19-.1-.36-.25-.56-.33-.08-.03-.27.03-.32.11-.5.78-1.28,1.11-2.1,1.39-.28.1-.56.2-.81.35-.37.21-.74.28-1.13.09-.41-.21-.8-.44-1.19-.69-.11-.07-.19-.21-.23-.33-.12-.34-.21-.69-.28-.95.16-.29.35-.56.44-.85.03-.1-.16-.33-.3-.38-.08-.03-.3.13-.37.26-.17.3-.33.62-.4.96-.04.18.12.41.22.69-.63-.14-.97.28-1.43.6-.73.52-1.44,1.3-2.63.86.19-.16.33-.31.5-.42.45-.29.91-.56,1.36-.84.24-.15.47-.31.7-.48.11-.08.22-.18.29-.3.04-.07.05-.23,0-.28-.05-.06-.21-.08-.28-.04-.24.15-.46.32-.72.51-.1-.12-.2-.23-.37-.43-.78.58-1.57,1.16-2.36,1.74-.03-.02-.07-.04-.1-.05.16-.33.28-.68.49-.98.22-.31.42-.6.2-.98.56-.31.68-.72.39-1.39-.16.07-.33.13-.52.21v-2.47c.88,0,1.72-.15,2.51.43.39.28.94.35,1.41.53.31.12.6.27.92.42-.25.38-.47.73-.7,1.08.04.05.08.1.12.15.23-.12.45-.24.74-.38.06.03.17.1.29.16.03-.02.06-.03.08-.05.1-.16.19-.33.29-.49.15-.25.36-.48.45-.75.19-.57.46-.73,1.06-.8.42-.05.83-.28,1.24-.43.19-.07.37-.22.56-.22.92.01,1.48-.54,1.98-1.21.03-.04.06-.06.24-.09,0,.26,0,.52,0,.78,0,.66.07.66.69.55.37-.06.78.13,1.16.23.02,0,.02.2-.03.28ZM62.93,19.14c-.25.11-.51.24-.73.4-.3.21-.35.21-.65-.11.11-.09.21-.17.34-.28-.24-.18-.45-.34-.62-.47v-1.13s.07-.04.1-.06c.23.25.46.49.71.75.16-.19.29-.34.44-.52.09.23.16.42.25.63.16-.06.3-.12.59-.23-.45-.39-.82-.7-1.21-1.04,0,0,.01-.02.02-.03.06-.11.12-.22.17-.33-.12-.02-.24-.07-.35-.06-.45.06-.68-.21-1-.63.36-.05.64-.09.92-.12.06-.13.14-.29.23-.48.11.23.21.42.3.61.05,0,.09,0,.14,0,.08-.25.16-.5.23-.74.49.35.57.83.18,1.07-.38.23-.46.49-.18.81.25.28.6.84.89,1.13-.27.3-.7.8-.76.83Z"/>
        <path d="M44.68,34.6c-.31-.18-.65-.3-.93-.42-.16.03-.26.03-.34.07-.18.08-.35.17-.52.26.17.15.32.35.51.45.28.13.59.2.89.24.16.02.38-.05.48-.16.06-.07,0-.39-.09-.44Z"/>
        <path d="M50.91,44.4c.05-.1.02-.25.02-.37-.12.03-.3.01-.36.09-.31.42-.59.86-.87,1.3-.03.04,0,.12,0,.22.68-.18.94-.73,1.21-1.24Z"/>
        <path d="M43.94,37.6c.36-.51.37-1.65-.01-2,.07.65-.34,1.3.01,2Z"/>
        <path d="M43.05,23.49c.6.11,1.13.24,1.66.29.17.02.35-.17.53-.27-.85-.58-1.68-.53-2.19-.02Z"/>
        <path d="M44.83,30.99c-.48-.14-.98-.24-1.48-.32-.09-.01-.3.16-.29.22.03.16.12.4.24.43.45.11.91.15,1.37.22.02.05.03.1.05.15.14-.12.28-.24.42-.36-.1-.12-.18-.3-.31-.34Z"/>
        <path d="M31.98,43.88c-.45.03-.87.67-.74,1.13.32-.26.62-.5.91-.75.05-.04.06-.18.04-.25-.03-.06-.14-.13-.21-.13Z"/>
        <path d="M43.33,27.64c.43.11.87.19,1.31.22.16.01.32-.15.48-.23-.12-.12-.23-.31-.37-.35-.41-.1-.83-.14-1.37-.23-.08.05-.22.14-.36.23.1.12.19.32.31.36Z"/>
      </g>
      <g>
        <g>
          <path class="st0" d="M7.49,51.66c.86-.55,1.76-1.06,2.57-1.67,1.42-1.07,2.58-2.39,3.62-3.89-.67-.04-1.29,0-1.88.24-.59.23-1.09.19-1.57-.26-.24-.23-.59-.34-.87-.53-.16-.11-.27-.27-.4-.41.15-.07.3-.17.46-.19.21-.03.42.02.63.03.08,0,.17.03.25.02,1.24-.24,2.49-.48,3.73-.74.29-.06.65-.02.85-.5-.37.12-.67.2-.95.32-.49.2-.49.17-.81-.22-.19-.23-.49-.37-.73-.55-.08-.06-.22-.13-.22-.2,0-.09.08-.22.16-.27.4-.21.82-.39,1.18-.57-.17-.65-.34-1.33-.52-2.03.65-.17,1.26-.22,1.64.51.37-.18.71-.34,1.05-.5.03.04.05.07.08.11-.12.19-.24.37-.35.57-.08.14-.18.29-.21.44-.02.09.09.21.14.32.1-.06.27-.11.29-.19.16-.66.3-1.33.41-2.01.02-.12-.1-.3-.21-.41-.36-.37-.33-.58.09-.84.5-.31.95-.33,1.42.08.22.2.53.3.77.48.24.16.26.33.06.6-.19.25-.28.58-.36.89-.07.26-.07.54-.07.83.44-.67,1.18-1.16,1.14-2.1,0-.17.17-.45.31-.49.17-.05.43.06.6.18.31.22.58.49.85.76.14.14.25.32.34.5.1.2.07.36-.17.45-.3.11-.59.22-.88.37-.26.13-.5.31-.75.47.01.04.02.07.04.11.14.01.29.03.43.03.56,0,.92.32,1.18.77.18.31.09.55-.22.73-.47.26-.95.39-1.49.19-.63-.23-1.26-.05-1.88.07-.16.03-.28.29-.42.44.03.04.06.09.08.13.58-.08,1.16-.17,1.74-.24,1.21-.14,2.42-.31,3.63-.38.41-.03.84.15,1.23.3.13.05.26.29.28.45.05.45-.63,1.31-1.06,1.4-.22.05-.45.08-.62-.16-.05-.07-.2-.12-.3-.1-.57.1-1.14.21-1.81.34.71.81,1.34,1.61,2.05,2.32.48.48,1.06.85,1.61,1.25.47.34.95.67,1.44.99.25.16.53.3.81.41.26.1.53.16.8.24v.31q-.24.57-.92.57c-.11,0-.23.02-.34.02-.73-.02-1.47-.02-2.2-.06-1.34-.07-2.24-.87-2.97-1.88-.87-1.21-1.69-2.47-2.53-3.71-.06-.09-.16-.14-.18-.16.08.27.19.57.27.88.09.34.06.63-.35.75-.06.02-.15.17-.13.2.05.08.14.18.23.19.12.02.25-.06.37-.06.21,0,.46-.04.62.06.31.19.45.92.32,1.31.2.05.4.08.59.14.15.05.41.14.42.22.02.26.02.63-.13.77-.33.31-.72.61-1.25.47-.13-.03-.27,0-.45,0,.02.42.08.82.06,1.22-.02.47.05,1.06-.2,1.39-.45.6-.95,1.28-1.88,1.23-.1,0-.21.07-.32.1h-.38s-.07-.08-.07-.13c0-.45-.26-.71-.66-.88-.13-.06-.2-.23-.3-.36.02-.03.05-.06.07-.1.36,0,.73,0,1.09,0,.24,0,.51.01.55-.28.08-.66.12-1.32.19-2.09-.53.19-.95.35-1.38.49-.18.06-.4.18-.53.12-.47-.21-.94-.45-1.34-.76-.13-.1-.09-.46-.05-.69,0-.05.35-.11.52-.07.63.15,1.24.05,1.86-.03-.39-.31-.76-.57-1.09-.88-.09-.08-.1-.26-.11-.4,0-.03.18-.12.24-.1.57.18,1.07-.13,1.6-.23.08-.02.14-.19.2-.3-.1-.06-.2-.18-.31-.19-.38-.02-.76,0-1.14.02-.13,0-.29.07-.37.16-.38.43-.73.89-1.09,1.33-.05.06-.11.1-.18.14-1.02.66-1.98,1.42-3.17,1.78-.79.24-1.51.74-2.39.67,0-.03,0-.05,0-.08ZM17.31,45.68c-1.24-.37-1.81.38-2.33,1.2-.09.15-.2.28-.3.42.03.02.05.05.08.07.84-.56,1.68-1.11,2.55-1.69Z"/>
          <path class="st0" d="M17.11,5.73c.48.25.95.51,1.43.76.16.08.35.11.47.23.08.09.13.33.07.42-.58.9-.41,1.91-.52,2.91.79-.13,1.53-.25,2.28-.38.95-.17,1.75.08,2.41.79.19.2.28.44.11.65-.3.37-.64.7-.99,1.03-.05.05-.25,0-.32-.06-.24-.19-.48-.24-.78-.16-.81.21-1.62.4-2.43.6.02.07.01.1.03.12,1.16,1.11,2.24,2.3,3.51,3.32,1.21.97,2.47,1.8,3.86,2.41-.31.25-.6.6-.96.73-.35.13-.79.08-1.17.03-.36-.05-.7-.27-1.03.08-.03.03-.18-.04-.27-.07-.37-.11-.74-.28-1.12-.32-.44-.04-.72-.25-.97-.58-.42-.57-.87-1.12-1.29-1.69-.61-.84-1.2-1.7-1.8-2.55-.06-.08-.12-.16-.22-.29-.14.33-.27.61-.37.9-.02.07.08.23.16.28.16.09.36.13.54.18.27.08.47.2.42.53,0,.05.02.13.05.17.23.3.27.73.08,1.04-.15.24-.25.26-.69.08-.07.08-.14.17-.23.26-.26-.58-.97-.38-1.33-.84-1.33,1.78-3.05,2.87-5.19,3.28-.25.05-.51,0-.77-.03,2.9-1.24,4.38-3.62,5.39-6.57-.72.19-1.35.37-1.98.52-.21.05-.48.15-.64.07-1.01-.53-1.51-1.01-1.07-2.18.27,0,.53.04.78,0,1-.19,1.99-.4,2.98-.6.35-.07.53-.26.58-.64.12-.98.29-1.96.44-2.93.04-.27-.03-.41-.32-.49-.15-.04-.28-.25-.36-.41-.02-.04.18-.22.3-.3.16-.11.35-.18.53-.27.13,0,.25,0,.38,0Z"/>
          <path class="st0" d="M15.15,33.4c.57-1.16,1.14-2.21,1.61-3.3.53-1.22.86-2.5.66-3.85-.04-.27-.12-.55-.23-.8-.05-.11-.2-.2-.33-.26-.29-.15-.41-.36-.33-.68.1-.4.2-.8.3-1.23,0,0,.1,0,.12.03.24.37.54.24.87.16.95-.24,1.9-.45,2.85-.66.45-.1.82,0,1.09.42.08.12.22.2.35.27.53.28.6.8.33,1.31-.31.58-.85.9-1.29,1.38.24.05.46.09.68.14.32.07.44.26.37.59-.13.63-.24,1.27-.39,1.9-.08.33-.22.64-.36.95-.11.23-.12.38.1.55.58.45,1.14.93,1.72,1.38.12.09.27.15.41.19.75.25,1.25.83,1.8,1.34.08.07.11.28.06.37-.05.1-.22.17-.34.18-.16.01-.32-.06-.49-.08-.21-.03-.44-.11-.63-.06-.57.18-1.13.01-1.68,0-.69-.02-1.26-.34-1.64-.94-.17-.27-.37-.52-.59-.82-1.24,1.26-2.55,2.38-4.46,2.31,0-.11-.02-.24-.03-.42.14-.01.28-.04.43-.03.67.02,1.22-.23,1.55-.79.45-.75.83-1.54,1.23-2.31.13-.26-.06-.43-.24-.52-.08-.04-.3.07-.37.17-.18.24-.3.52-.48.76-.38.5-.74,1.02-1.2,1.44-.4.36-.93.59-1.46.92ZM20.18,27.23c-.3.17-.49.28-.72.41.66-.98,1.02-2,1.08-3.18-.43.15-.8.3-1.17.4-.31.08-.38.24-.36.55.05.82.09,1.65.08,2.47-.01.61.01.72.63.96.14-.5.29-.99.46-1.6Z"/>
          <path class="st0" d="M8.74,32.49c.28-.5.58-.78,1.01-.98.38-.18.72-.46,1.04-.73.63-.54,1.24-1.09,1.83-1.67.31-.3.58-.66.88-1.01-.09-.03-.12-.05-.13-.05-.63.48-.63.48-1.17-.1-.33-.36-.65-.71-.95-1.09-.09-.12-.15-.34-.1-.47.03-.09.29-.16.42-.13.37.08.64-.09.92-.27.12-.08.24-.15.35-.23.84-.56.97-1.33.38-2.15-.16-.22-.03-.75.22-.88.41-.22.82-.44,1.28-.69.15.12.4.3.63.49.24.2.27.46.18.76-.11.38-.17.76-.25,1.15-.04.22.09.32.29.36.15.03.3.06.45.1.55.15.81.59.69,1.16-.09.39-.52.61-.91.5-.11-.03-.31.05-.39.15-.17.2-.01.9.2,1.06.31.22.63.43.94.64.33.22.44.61.21.96-.26.41-.51.62-.92.36-.14-.09-.3-.13-.51-.23-.06.76-.11,1.47-.19,2.19-.05.49-.13.98-.21,1.46-.04.3-.1.59-.15.89-.1.6-.54.94-.99,1.35-.18-.81-.72-1.32-1.19-1.87-.11-.13-.11-.35-.16-.53.15-.03.3-.07.46-.09.12-.02.25,0,.38,0,.35-.03.54-.17.51-.58-.04-.54,0-1.08,0-1.72-.27.21-.46.36-.65.52-.84.69-1.78,1.1-2.89,1.1-.34,0-.67.12-1.01.19-.14.03-.29.05-.52.09Z"/>
        </g>
        <g>
          <path d="M6.75,51.89c.86-.55,1.75-1.05,2.56-1.66,1.41-1.07,2.57-2.38,3.61-3.88-.67-.04-1.29,0-1.88.24-.59.23-1.08.19-1.57-.26-.24-.23-.59-.34-.87-.53-.15-.11-.27-.27-.4-.41.15-.07.3-.17.46-.19.21-.03.42.02.63.03.08,0,.17.03.25.02,1.24-.24,2.48-.47,3.72-.73.28-.06.65-.02.84-.5-.37.12-.67.2-.95.32-.48.2-.49.17-.81-.22-.19-.23-.48-.37-.73-.55-.08-.06-.22-.13-.22-.2,0-.09.08-.22.16-.27.4-.21.81-.39,1.18-.56-.16-.65-.34-1.33-.51-2.02.65-.17,1.26-.21,1.64.51.37-.17.7-.34,1.04-.5.03.04.05.07.08.11-.12.19-.24.37-.35.56-.08.14-.18.28-.21.44-.02.09.09.21.14.31.1-.06.27-.11.29-.19.16-.66.3-1.33.41-2,.02-.12-.1-.3-.21-.41-.36-.37-.33-.58.09-.83.5-.31.95-.33,1.41.08.22.2.52.3.77.47.24.16.26.33.06.6-.19.25-.28.58-.36.89-.07.26-.07.54-.07.83.44-.66,1.17-1.15,1.13-2.1,0-.17.17-.45.31-.49.17-.05.43.06.59.18.31.22.58.49.85.76.14.14.25.32.34.49.1.2.07.36-.17.45-.3.11-.59.22-.87.37-.26.13-.5.31-.74.47.01.04.02.07.04.11.14.01.29.03.43.03.56,0,.92.32,1.18.77.18.31.09.55-.22.73-.47.26-.94.39-1.48.19-.62-.23-1.26-.05-1.87.07-.16.03-.28.29-.42.44.03.04.06.09.08.13.58-.08,1.16-.17,1.74-.24,1.2-.14,2.41-.3,3.62-.38.4-.03.83.15,1.23.29.13.05.26.28.27.45.05.44-.62,1.3-1.06,1.4-.22.05-.45.08-.62-.16-.05-.07-.2-.12-.3-.1-.57.09-1.14.21-1.8.34.71.81,1.33,1.6,2.04,2.31.47.48,1.06.85,1.61,1.25.47.34.95.67,1.43.99.25.16.53.3.8.41.25.1.53.16.79.24v.3q-.24.57-.92.57c-.11,0-.23.02-.34.02-.73-.02-1.46-.02-2.19-.06-1.34-.07-2.24-.87-2.96-1.88-.87-1.21-1.68-2.46-2.52-3.7-.06-.09-.16-.14-.18-.16.08.27.19.57.27.88.09.34.06.63-.35.75-.06.02-.15.17-.13.2.05.08.14.18.23.19.12.02.25-.06.37-.06.21,0,.46-.04.61.06.3.19.45.92.32,1.31.2.05.4.08.59.14.15.05.41.14.42.22.01.26.02.62-.13.77-.33.31-.72.61-1.25.47-.13-.03-.27,0-.44,0,.02.42.08.82.06,1.22-.02.47.05,1.06-.2,1.39-.45.59-.95,1.27-1.87,1.23-.1,0-.21.07-.32.1h-.38s-.07-.08-.07-.13c0-.45-.26-.7-.65-.88-.13-.06-.2-.23-.3-.36.02-.03.05-.06.07-.1.36,0,.73,0,1.09,0,.24,0,.51.01.55-.28.08-.66.12-1.32.19-2.08-.52.19-.95.35-1.37.49-.17.06-.4.18-.53.12-.47-.21-.93-.45-1.33-.76-.13-.1-.09-.46-.05-.69,0-.05.35-.11.51-.07.63.15,1.23.05,1.86-.03-.39-.31-.75-.57-1.09-.87-.09-.08-.1-.26-.11-.4,0-.03.17-.12.24-.1.57.18,1.07-.13,1.59-.23.08-.02.14-.19.2-.3-.1-.06-.2-.18-.31-.18-.38-.02-.76,0-1.14.02-.13,0-.29.07-.37.16-.37.43-.72.89-1.09,1.33-.05.06-.11.1-.17.14-1.01.66-1.97,1.41-3.16,1.77-.79.24-1.51.73-2.38.67,0-.03,0-.05,0-.08ZM16.52,45.94c-1.24-.37-1.8.38-2.32,1.19-.09.14-.2.28-.3.42.03.02.05.05.08.07.84-.55,1.67-1.11,2.54-1.68Z"/>
          <path d="M16.32,6.14c.48.25.95.51,1.43.75.15.08.35.11.46.23.08.09.13.32.07.41-.58.89-.41,1.9-.52,2.9.78-.13,1.53-.25,2.27-.38.95-.17,1.75.08,2.4.79.18.2.28.44.11.65-.3.37-.64.7-.99,1.02-.05.05-.24,0-.32-.06-.24-.19-.48-.24-.78-.16-.8.21-1.61.4-2.42.6.02.07.01.1.03.12,1.16,1.11,2.23,2.29,3.5,3.3,1.21.96,2.46,1.79,3.85,2.4-.31.25-.59.59-.95.73-.35.13-.78.08-1.17.03-.35-.05-.7-.27-1.02.08-.03.03-.18-.04-.27-.07-.37-.11-.74-.28-1.12-.32-.44-.04-.72-.25-.96-.58-.42-.57-.87-1.11-1.28-1.69-.61-.84-1.2-1.69-1.79-2.54-.06-.08-.12-.16-.22-.29-.14.32-.27.6-.36.9-.02.07.08.23.16.28.16.09.35.13.54.18.27.08.47.19.42.53,0,.05.02.13.05.17.23.3.27.73.08,1.04-.15.24-.25.26-.68.08-.07.08-.14.17-.23.26-.26-.58-.96-.38-1.32-.84-1.33,1.77-3.04,2.86-5.17,3.27-.25.05-.51,0-.77-.03,2.89-1.23,4.36-3.61,5.37-6.55-.72.19-1.34.36-1.97.52-.21.05-.48.15-.64.07-1.01-.53-1.5-1.01-1.07-2.18.27,0,.53.04.78,0,.99-.19,1.98-.4,2.97-.6.35-.07.53-.25.58-.64.12-.98.29-1.95.44-2.92.04-.27-.03-.41-.32-.49-.15-.04-.28-.25-.36-.41-.02-.04.18-.22.3-.3.16-.11.35-.18.53-.27.13,0,.25,0,.38,0Z"/>
          <path d="M14.37,33.71c.57-1.16,1.13-2.2,1.6-3.29.53-1.21.85-2.49.66-3.84-.04-.27-.12-.54-.23-.8-.05-.11-.2-.2-.33-.26-.29-.15-.41-.36-.33-.68.1-.4.19-.8.3-1.22,0,0,.1,0,.12.03.24.36.54.24.87.16.94-.24,1.89-.45,2.84-.66.44-.1.82,0,1.09.42.08.12.22.2.35.27.53.28.6.8.33,1.31-.3.58-.85.89-1.28,1.38.24.05.46.09.68.14.32.07.44.26.37.58-.13.63-.24,1.27-.39,1.89-.08.33-.22.64-.36.95-.11.23-.12.38.1.55.58.45,1.14.92,1.72,1.38.12.09.26.15.41.19.75.25,1.25.83,1.8,1.34.08.07.11.28.06.37-.05.09-.22.17-.34.18-.16.01-.32-.06-.48-.08-.21-.03-.44-.11-.63-.06-.57.17-1.12.01-1.68,0-.69-.02-1.25-.34-1.64-.94-.17-.26-.37-.51-.58-.82-1.24,1.25-2.54,2.37-4.44,2.3,0-.11-.02-.24-.03-.42.14-.01.28-.04.43-.03.66.02,1.21-.23,1.55-.79.45-.74.83-1.53,1.23-2.3.13-.25-.06-.43-.24-.52-.08-.04-.29.07-.37.17-.18.24-.3.52-.48.76-.38.49-.74,1.02-1.2,1.43-.4.36-.92.59-1.45.92ZM19.38,27.55c-.29.17-.48.28-.72.41.66-.97,1.02-1.99,1.07-3.17-.43.15-.79.3-1.17.4-.3.08-.38.23-.36.54.05.82.09,1.64.08,2.46-.01.61.01.71.63.95.14-.5.28-.99.46-1.59Z"/>
          <path d="M7.99,32.8c.28-.5.58-.78,1-.98.38-.18.72-.45,1.03-.73.62-.54,1.23-1.09,1.82-1.66.31-.3.58-.66.88-1.01-.09-.03-.12-.05-.13-.05-.62.48-.63.48-1.16-.1-.33-.35-.65-.71-.95-1.09-.09-.12-.15-.33-.1-.46.03-.09.28-.16.42-.13.37.08.64-.09.91-.27.12-.08.24-.15.35-.23.83-.56.97-1.32.38-2.15-.16-.22-.03-.74.22-.88.41-.22.82-.44,1.28-.69.15.12.4.3.63.49.24.2.27.45.18.75-.11.37-.17.76-.25,1.14-.04.22.09.32.29.36.15.03.3.06.44.1.55.15.81.59.68,1.15-.09.39-.52.61-.9.49-.11-.03-.31.05-.39.15-.17.2-.01.9.2,1.05.31.22.63.43.94.64.33.22.43.61.21.96-.26.4-.51.62-.92.36-.13-.09-.3-.13-.51-.23-.06.76-.11,1.47-.19,2.18-.05.49-.13.97-.2,1.46-.04.3-.1.59-.15.89-.1.6-.54.93-.99,1.34-.18-.81-.71-1.31-1.18-1.86-.11-.13-.11-.35-.16-.52.15-.03.3-.07.46-.09.12-.02.25,0,.38,0,.35-.03.54-.17.51-.58-.04-.54,0-1.08,0-1.72-.26.21-.46.36-.65.51-.84.69-1.77,1.09-2.88,1.1-.33,0-.67.12-1,.18-.14.03-.29.05-.52.09Z"/>
        </g>
      </g>
    </g>
  </g>
</svg>