<svg width="144" height="144" viewBox="0 0 144 144" fill="none" xmlns="http://www.w3.org/2000/svg">
<path d="M123.979 112.626C123.979 112.626 117.027 119.454 115.323 121.456C112.548 124.418 109.278 125.816 104.992 125.816C104.579 125.816 104.14 125.816 103.728 125.789C95.5665 125.268 87.9826 122.087 82.2946 119.372C66.7419 111.858 53.0853 101.191 41.7368 87.672C32.3667 76.4016 26.1017 65.9812 21.9525 54.793C19.397 47.9649 18.4627 42.645 18.8749 37.6268C19.1497 34.4184 20.3862 31.7585 22.6669 29.4825L32.037 20.1315C33.3834 18.8701 34.8123 18.1846 36.2137 18.1846C37.9448 18.1846 39.3462 19.2266 40.2255 20.1041C40.2529 20.1315 40.2804 20.159 40.3079 20.1864C41.9841 21.7494 43.5778 23.3673 45.254 25.0949C46.1058 25.9724 46.9851 26.8499 47.8644 27.7549L55.366 35.2411C58.2786 38.1478 58.2786 40.8352 55.366 43.7419C54.5691 44.5372 53.7997 45.3324 53.0028 46.1002C50.6947 48.4585 52.5079 46.649 50.1173 48.7879C50.0623 48.8428 50.0073 48.8702 49.9799 48.925C47.6167 51.2833 48.0564 53.5868 48.551 55.1498C48.5785 55.2321 48.606 55.3144 48.6334 55.3966C50.5844 60.1132 53.3322 64.5556 57.5089 69.848L57.5364 69.8755C65.1203 79.199 73.1165 86.4658 81.937 92.0325C83.0636 92.7454 84.2177 93.3213 85.3168 93.8698C86.306 94.3634 87.2403 94.8295 88.0371 95.3231C88.1471 95.378 88.257 95.4602 88.3669 95.5151C89.3011 95.9812 90.1804 96.2006 91.0872 96.2006C93.3679 96.2006 94.7968 94.7747 95.2639 94.3085L100.65 88.9334C101.584 88.0011 103.068 86.8768 104.799 86.8768C106.503 86.8768 107.904 87.9462 108.756 88.8786C108.784 88.906 108.784 88.906 108.811 88.9334L123.951 104.043C126.782 106.84 123.979 112.626 123.979 112.626Z" stroke="#30434F" stroke-width="12" stroke-linecap="round" stroke-linejoin="round"/>
</svg>
