<svg width="36" height="36" viewBox="0 0 36 36" fill="none" xmlns="http://www.w3.org/2000/svg">
<path d="M30.9947 28.1564C30.9947 28.1564 29.2567 29.8635 28.8308 30.3639C28.137 31.1043 27.3195 31.4539 26.2479 31.4539C26.1448 31.4539 26.0349 31.4539 25.9319 31.4471C23.8916 31.3168 21.9956 30.5216 20.5736 29.8429C16.6855 27.9645 13.2713 25.2977 10.4342 21.9179C8.09168 19.1003 6.52542 16.4952 5.48812 13.6982C4.84925 11.9911 4.61569 10.6612 4.71873 9.40662C4.78743 8.60452 5.09655 7.93954 5.66673 7.37053L8.00924 5.0328C8.34585 4.71745 8.70307 4.54606 9.05341 4.54606C9.48619 4.54606 9.83654 4.80657 10.0564 5.02595C10.0632 5.0328 10.0701 5.03966 10.077 5.04652C10.496 5.43728 10.8945 5.84175 11.3135 6.27365C11.5264 6.49303 11.7463 6.7124 11.9661 6.93864L13.8415 8.81019C14.5697 9.53687 14.5697 10.2087 13.8415 10.9354C13.6423 11.1342 13.4499 11.333 13.2507 11.525C12.6737 12.1145 13.127 11.6622 12.5293 12.1969C12.5156 12.2106 12.5018 12.2175 12.495 12.2312C11.9042 12.8208 12.0141 13.3966 12.1377 13.7874C12.1446 13.8079 12.1515 13.8285 12.1584 13.8491C12.6461 15.0282 13.333 16.1388 14.3772 17.4619L14.3841 17.4688C16.2801 19.7997 18.2791 21.6164 20.4842 23.008C20.7659 23.1863 21.0544 23.3302 21.3292 23.4674C21.5765 23.5908 21.8101 23.7073 22.0093 23.8307C22.0368 23.8444 22.0642 23.865 22.0917 23.8787C22.3253 23.9952 22.5451 24.0501 22.7718 24.0501C23.342 24.0501 23.6992 23.6936 23.816 23.577L25.1625 22.2333C25.3961 22.0002 25.767 21.7191 26.1998 21.7191C26.6257 21.7191 26.9761 21.9865 27.189 22.2196C27.1959 22.2264 27.1959 22.2264 27.2028 22.2333L30.9879 26.0107C31.6954 26.7099 30.9947 28.1564 30.9947 28.1564Z" stroke="#B8DBD9" stroke-width="3" stroke-linecap="round" stroke-linejoin="round"/>
</svg>
