<?xml version="1.0" encoding="UTF-8"?>
<svg id="Layer_1" xmlns="http://www.w3.org/2000/svg" version="1.1" xmlns:xlink="http://www.w3.org/1999/xlink" viewBox="0 0 268.17 260.74">
  <!-- Generator: Adobe Illustrator 29.4.0, SVG Export Plug-In . SVG Version: 2.1.0 Build 152)  -->
  <defs>
    <style>
      .st0 {
        fill: #314152;
      }

      .st1 {
        fill: url(#linear-gradient);
      }
    </style>
    <linearGradient id="linear-gradient" x1="134.09" y1="6.45" x2="134.09" y2="254.29" gradientUnits="userSpaceOnUse">
      <stop offset=".1" stop-color="#f6f6f6"/>
      <stop offset=".32" stop-color="#f0f3f3"/>
      <stop offset=".58" stop-color="#e1ecec"/>
      <stop offset=".88" stop-color="#c7e0e0"/>
      <stop offset="1" stop-color="#bbdada"/>
    </linearGradient>
  </defs>
  <rect class="st1" x="5.48" y="6.45" width="257.22" height="247.83" rx="32.48" ry="32.48"/>
  <g>
    <path class="st0" d="M68.11,61.79c2.16-2.37.21-4.08.7-6.97.3-1.76,2.09-3.4,2.21-4.19.07-.47-.33-1.07-.25-1.52.59-3.45,4.38-5.38,4.44-5.75.23-1.49-2.43-4.83.23-6.95,3.27-2.6,4.96,1.67,7.24,1.96,1.3.17,4.47-.74,6.03-.81,1.84-.08,4.26-.16,6.07-.02,1.97.16,5.38,1.6,6.44,1.6,1.7,0,4.5-2.99,7.34-2.09,3.54,1.11,1.83,5.89,2.52,8.41,2.29,1.5,4.93,2.5,7.08,4.22,7.36,5.85,8.73,12.81,20.61,12.12,11.25-.66,21.49-4.76,33.03.44.95.43,2.29,1.72,2.98,1.9,1.85.47,6.53-4.02,7.53-5.61,8.19-13.01-10.29-25.5-21.82-26.56-4.23-.39-16.02-1.24-14.59,5.71,1.14,5.57,11.94,2.28,10.23,7.97-1.49,4.97-8.76,3.1-12.21,1.27-11.53-6.13-9.96-18.84,2.07-23.09,19.21-6.79,50.67,7.96,48.65,30.89-.69,7.8-5.34,13.81-11.18,18.57,5.02,8.11,3.38,18.93,10.58,25.65,1.7,1.59,5.52,3.25,6.29,5.01.64,7.59,8.52,22.04,3.61,28.68-2.57,3.48-7.94,2.8-11.9,2.62-1.62-.07-4.58-.2-6.03-.43-4.04-.63-2.17-7.24-.04-9.28,2.67-2.55,5.15-.42,3.23-6.03-1.65-4.83-5.17-4.54-9.06-6.28s-7.62-3.38-11.1-6.26-6.75-7.99-11.84-7.57c-1.67,2.63-1.05,6.64.4,9.32,1.76,3.26,4.66,3.46,3.86,8.06-.39,2.25-4.6,8.15-6.02,10.52-1.64,2.73-2.85,7.33-6.62,7.91-2.58.4-11.01.1-13.61-.46-3.32-.72-2.99-4.84-1.27-7.15,2.45-3.31,5.7-3.35,9.48-3.43.23-.16,1.45-4.8,1.42-5.28-.09-1.3-2.76-2.27-3.87-3.22-2.89-2.47-2.86-4.94-7.44-4.22-3.25.51-6.23,4.83-8.05,7.28-2.2,2.96-5.09,6.86-7.03,9.92-3.94,6.2-3.1,12.92-12.41,12.66-3.69-.1-9.78-.19-13.21-.92-4.73-1.01-2.45-8.62.69-10.42,1.64-.94,4.33.39,5.43-1.03.95-1.22,3.44-6.66,4.15-8.37,1.32-3.17,4.32-9.85-2.21-7.45-2.29.84-7.23,5.87-9.61,7.74-4.74,3.72-8.54,5.61-12.46,10.55-1.79,2.26-3.05,6.23-5.77,7.15-2.87.97-4.73.32-7.34.29-5.4-.07-16.03,1.07-12.34-7.87,2.8-6.79,8.86-1.91,12.73-7.05,3.13-6.45,8.6-13.21,11.57-19.51,2.23-4.72,1.39-8.1,2.13-12.81.45-2.85,6.01-12.25,2.65-13.91-1.97-.98-5.89.79-8.69-1.8-2.1-1.94-.87-4.44-1.61-5.66-.11-.18-3.08-2.67-3.28-2.77-2.06-1.08-3.06.37-4.99.75,1.02-1.4,3.21-1.96,4.85-2.02l-.36-2.19c-.68-.97-4.98,1.43-6.1,1.38l2.03-1.4,3.62-1.01-6.05-1.22h6.26ZM163.14,25.08l-4.82-.67c-.84.61-.2,4.32-.39,5.48l4.85.4.37-5.22ZM150.66,30.3c-.67-1.6.44-5.5-2.14-4.77-1.78.5-1.77,3.32-1.31,4.8l3.45-.02ZM175.28,28.69c-4.26-1.92-6.31-2.96-6.41,2.95l3.58,1.89c0-1.26.85-2.49,1.62-3.45.51-.64,1.52-.3,1.21-1.39ZM143.78,33.15c-1.89.06-2.35-1.91-3.61-2.85-1.89,3.53-2.76,7.22,2.77,6.4l.84-3.56ZM184.97,36.35c.5-.47-3.9-4.17-4.6-4l-2.67,4.22,3.03,2.61c.9-1.63,2.21-3.03,4.24-2.83ZM80.82,39.59l-4.44-1.62,1.62,4.44c.62.15.53.03.84-.27.44-.43,2.27-2.13,1.98-2.55ZM108.27,39.99c-.08-.16.23-.72-.26-.82-3.08-.78-8.95,3.53-11.44,5.26-.39-1.99,1.79-2.16,2.01-3.63-.64-.7-8.6-1.07-9.8-.73-.42.12-.98.67-1.09,1.12,3.17-.37,5.51.82,8.07,2.43v.8c-.11.13-1.51-.81-1.81-.81h-8.28c-.21,1.67,2.24.22,3.47,1.17.35.27,1.18,2.19.97,2.46-1.73-1.17-5.15-2.02-6.41.25-.67,1.21-.24,2.86-1.46,3.79-2.73-.57,1.15-3.8-.18-4.66-1.65-.7-2.87.81-3.85,1.83l-.25-1.15-1.15-.25,2.43-2.44c1.74.14,3.79.34,5.23-.79,0-.83-4.88-.77-5.76-.52-.43.12-5.15,3.95-5.36,4.36-.62,1.22,2.34,2.32,2.85,3.22l.6-2.01c1.27-1.64.35,3.64.21,4.05-.3.87-4.45,6.7-3.85,7.25l6.87.21c.57-.34,2.35-5.9,3.29-7.21.73-1.01,1.64-1.28,2.14-1.9.7-.88.95-3.54,2.64-3.01-.4.66-1.92,1.79-1.4,2.63,1.09-.52,2.37-.26,3.44-.59,1.67-.52,2.76-2.62,4.42-3.04.8.95-2.5,5.63-3.44,6.45-.82.71-3.22,2.08-4.2,2.24-1.27.21-1.81-1.82-3.88.98-.95,1.28-1.15,3.04-2.2,4.26-1.5,1.74-4.74,2.12-4.05,5.65.32,1.62,5.38,1.67,6.87,2.22.3-.74-3.21-1.37-1.43-1.6l3.85,1.6c.23-1.08-.27-.7-.79-1-1.3-.77-3.06-1.11-4.05-2.22l5.65,1.61-.27-1.22-4.97-1.4,1.6-.43,4.45.63-.03-1.17-5.21-1.25c1.25-.25,2.7.24,3.84.2.37-.01.79-.75,1.52-.57.44.11,3.62,2.51,4.32,2.99l-3.23-1.01c.31.56.37,1.37.81,1.81.51.51,1.59.29,1.61,1.01-2.21-.52-2.6.87-2.82,2.82,2.5.12,3.53,1.66,4.51,3.77,1.35,2.93,1.93,6.74,1.94,9.96-.94-.2-1-2.98-1.26-3.18-.19-.15-1.3,0-1.95-.27-1.35-.55-2.65-2.51-4.26-3.01-.11,5.92,4.62,11.4,7.33,16.49.29.55.72.93.54,1.67-.98,1.24-8.45-9.83-9.08-10.09-.79-.32-1.24,2.22-1.3,2.72-1.11,9.2,5.65,11.8,11.39,16.66.5.42,3.4,3.74,3.84,3.22l.81-6.86,2.8,5.78,1.23.27c0-2.12.08-4.54.45-6.61,1.76-9.87,12.22-13.97,15.4-23.35,3.13-9.22,3.66-18-4.15-24.94,2.41,6.25,1.23,13.67-2.83,18.97,1.38-5.73,2.36-12.47-.47-17.9-.84-1.61-2.05-2.71-2.77-4.29-.65-.11-.4.56-.41,1.01-.02,1.33.51,2.55.22,3.83l-4.23-5.87c-.16-.72,1.07-.94,1.53-1.67.93-1.5,1.24-4.69.48-6.18.63.69-2.4,3.7-2.82,4.32-.77,1.13-.79,3.69-3.24,2.75l.81-1.61-1.61-1.21,6.86-4.24ZM87.69,39.99c-2.21.31-5.09-.07-6.46,2.01,2.14-.24,5.06-.1,6.46-2.01ZM192.23,49.68c-.04-2.95-2.33-9.95-6.26-6.47-1.86,1.65-.45,3.27-.15,5.22,2.32-.03,4.4-.05,6.42,1.25ZM71.91,65.45l-.6,1.58,2.64,1.85c4.5-2.13-1.43-5.55-1.93-8.21-.37-1.95,1-3.34,1.46-5.08l-1.93-2.68c-.69,1.65-.97,2.8-.79,4.63.05.5.63.95.63,1.22,0,.24-1.37,3.56-1.06,3.83l1.61.4c-4.9-.27-.11,2.23-.03,2.46ZM184.56,59.36c2.38-.26,3.5,1.86,5.05,3.22,5.24-5.85-3.63-10.65-5.05-3.22ZM127.25,62.19v5.85c0,4.17-4.32,14.22-7.06,17.56-3.82,4.67-11.43,7.84-12.28,14.36-.21,1.6.07,3.38-.03,5.01,3.93-5.07,10.98-5.97,15.1-10.93,3.27-3.94,4.76-10.69,5.08-15.71l3.58,16.8.46,8.63c2.13-1.63,2.97-4.41,3.93-6.78.25-.61-.24-1.1.91-.88-.75,1.58-.24,3.28-.5,4.95-.2,1.28-2.79,6.68-2.33,7.16,1.11-.06,2.29.13,3.4-.03,2.23-.33,11.33-5.42,13.16-7.02,3.75-3.29,4.07-8.05,5.24-12.52.15-.56-.01-1.26.81-1.41v8.68c5.69,3.33,3.54-1.53,3.63-4.85.01-.48-.3-1.5.4-1.41,1.11,3.19,2.59,6.33,4.85,8.88v-25.63c0-.89-1.08-4.37-1.54-5.32-1.88-3.94-5.69-4.89-9.76-4.97l4.61,4.46c2.95,4.5,3.31,9.09,1.72,14.19-.13.42-.1,1.22-.68,1.12.26-2.84-.26-5.24-1.21-7.88-1.95-5.42-6.89-11.81-13.33-10.68,3.69,3.12,8.17,7.21,8.85,12.34.84,6.41-.51,16.08-5.21,20.75.19-7.26,2.69-14.13.5-21.3-1.36-4.45-5.24-10.98-10.6-10.59,7.44,8.37,8.08,17.79,5.05,28.25-.79,2.72-1.74,6.07-4.23,7.67,2.16-10.25,4.83-23.72-2.26-32.66-.47-.59-3.94-4.33-4.61-3.66,1.39,3.79,3.69,7.79,4.05,11.89s-.63,12.92-2.74,16.25c-.26.41.02.71-.91.51.34-5.82.43-11.25-.52-17.04-.74-4.48-2.26-10.88-5.53-14.04ZM180.13,73.9v10.7c0,.56-.88,3.5-1.61,3.83.47-5.49.95-11.28-1.02-16.54-.77-2.06-2.25-4.91-4.64-5.25,1.31,4.28,2.91,8.6,3.22,13.12.28,4.09-.65,17.41-2.72,20.67-1.21,1.91-1.75-3.21-1.75-4.13-.01-9.08,2.91-18.57-.47-27.35-.83-2.15-1.93-4.08-3.74-5.54-.71-.09-.62-.02-.61.61,0,1.76,1.17,3.9,1.52,5.75,1.69,8.91-.49,19.4-.26,28.52.13,1.82,3.71,7.15,5.59,6.5,4.86-1.68,9.2-14.72,9.66-19.43.36-3.67-.29-8.87-3.18-11.46ZM180.83,63.47c-.57.12-2.81,1.84-2.69,2.5l4.21,5.09c1.19-1.3,3.37-1.91,2.97-4.14-.25-1.39-3.13-3.74-4.48-3.46ZM77.09,69.95c-2.53.41-4.08,3.1-1.4,4.44,1.75.87,4.57,1.05,6.31.08,4.31-2.4-2.46-4.92-4.91-4.52ZM90.51,72.29l-2.62-1.61-1.41,3.22,4.03-1.61ZM176.49,108.2c2.69.53,5.03,1.57,7.48-.39,3.77-3.01,2.95-15.82,1.4-20.19l-1.4,8.88c-.85,5.1-3.51,8.59-7.47,11.7ZM98.18,132.43c-.99,1.65-2.43,2.8-1.16,5,2.54,4.4,5.47-4.33,7.47-5.35.69-.35,2.88-1.02,3.38-.06-3.87-.28-6.32,7.37-1.41,7.3,5.95-.08,6-4.58,8.06-8.52,2.77-5.34,10.77-11.3-.18-13.5,2.63-1.48,6.14-.63,7.87,1.81,3.12-5.01,8.79-8.61,7.46-15.33l-2.82,3.03c-1.5,1.27-3.54,2.26-5.49,2.59-.41.07-1.48.32-1.37-.37,3.19-.92,6.45-3.97,7.74-6.99.27-.64,1.13-3.23,1.13-3.71v-7.06l-1.84,3.61c-4.44,5.86-12.54,6.3-16.89,12.17-2.7,3.63-2.47,8.3-4.08,12.47-1.23,3.19-3.47,6.26-4.65,9.52l2.84,2.59c-2.07-.63-4.12-.08-6.05.81.1-.17.48-.75.4-.8-1.08.1-2.38-.19-3.42,0-2.44.46-4.35,6.77-.62,6.85-.3-2.82,1.2-4.93,3.64-6.05ZM82.84,111.84c1.31.11,2.77.47,3.92,1.12,2.92,1.65,4.92,7.54,7.6,1.31s-5.01-10.75-8.5-14.95l-3.02-4.44c-.47,1.7-.67,4.02-.32,5.76.45,2.19,4.69,5.26,4.35,6.95-.16.8-.59.42-1.03.22-1.53-.69-2.17-2.88-4.8-2.44-1.55.26-5.22,6.33-6.2,7.95-1.96,3.24-4.53,9.71-6.75,12.22-.72.81-1.51.74-2.22,1.43l.81,1.81c-2.75,1.14-6.39-.66-8.78.31-2.22.9-4.76,6.23-1.32,6.96.21-2.7,1.59-5.7,4.44-6.45-2.38,2.14-3.84,9.23,1.22,6.66.89-4.3,1.9-8.55,7.26-6.86.38.12.92.06.8.59-3.66.27-5.99,2.71-4.74,6.36,2.17.95,5.41.76,7.37-.7,1.67-1.25,1.77-2.99,2.85-4.42,2.31-3.05,5.37-4.78,5.43-9.31l2.56,1.58c5.94-4.17,3.16-7.62-.95-11.67ZM189.81,97.71l-.8.2c1.01,5.19.6,10.93-3.62,14.53,0,.58,3.51,1.08,4.22,1.04,1.76-.11,2.57-1.61,4.24-1.64.67,3.8-3,3.5-2.79,7,.05.79.6,3.25,1,3.88.74,1.16,3.01,1.7,3.81,2.84-5,.25-10.99-.38-10.04,6.61l1.96,1.06c-.26-2.72.95-5.01,3.23-6.46-1.34,3.53-2.63,7.28,2.83,6.45-1.21-2.05,1.01-5.33,2.87-6.21.87-.41,2.46-1.05,2.78.15-4.93.76-5.92,7.91.83,5.47,2.82-1.02,3.03-4.31,2.8-6.88-.2-2.26-5.02-19.11-6.05-20.59-.26-.38-2.45-2.64-2.83-2.22.14,2.49-.24,6.3-3.23,6.86,2.22-4.37,1.15-8.13-1.22-12.1ZM149.05,113.45c-.96-1.03,3.4-4.5,3.57-6.33l-.6-.91c-3.12-.91-7.4,6.45-7.12,9.14.58,1.56,3.88,2.27,5.36,2.95-2,1.52-3.23,1.39-4.22,4.04-1.11,2.96.28,2.26.99,4.83-1.59-.94-3.79.05-4.98-.12-.56-.08-1.12-.86-2.08-.9-2.7-.1-5.12,2.19-5.09,4.86.05,4.86,2.29-.94,2.85-1.62.48-.58,2.24-2.09,2.83-1.61-2.4,1.91-4.01,5.29.4,5.45-.23-3.05,1.6-4.64,4.24-5.65.21,1.26-1.16,1.57-1.39,3.05-.32,2.03.11,2.81,2.2,2.79,5.02-.03,7.06-6.92,9.01-10.56,1.14-2.13,4.17-5.42,4.01-7.91-.18-2.91-4.33,1.45-5.96.51l2.01-5.65c-1.85,1.44-3.41,3.65-6.05,3.63Z"/>
    <path class="st0" d="M96.57,78.74l.02-4.02c6.9-.38,9.23-8.11,9.65-13.89l-2.6-8.33c9.97,8.53,5.4,23.64-7.06,26.23Z"/>
    <path class="st0" d="M95.36,66.22c.53-1.51,1.97-1.84,2.9-3.35,2.33-3.76,2.38-13.02-.48-16.63.65-.58,2.11,1.21,2.59,1.85,1.46,1.93,2.9,5.85,3.05,8.25.3,4.8-1.83,12.65-8.07,9.88Z"/>
    <path class="st0" d="M101,97.71c-.59.07-.72-1.06-.77-1.45-.9-8.34,2.89-10.77,7.22-16.53,1.37-1.82,2.22-3.75,3.64-5.44.23,8.96-10.38,14.09-10.09,23.41Z"/>
    <path class="st0" d="M89.71,58.16c4.08,1.56,5.44-2.37,6.06-5.65,2.12,1.28,1.11,7.34-.81,8.29-1.45.72-4.44-1.42-5.25-2.63Z"/>
  </g>
  <g>
    <path class="st0" d="M18.17,203.61v-34.27c0-1.17-.25-1.99-.75-2.48-.5-.48-1.22-.73-2.15-.73h-2.3v-4.15h3.6c1.73,0,3.18.52,4.35,1.55,1.17,1.03,1.75,2.78,1.75,5.25v34.82h-4.5Z"/>
    <path class="st0" d="M29.47,191.61v-7.9c0-3.17.53-5.77,1.6-7.8,1.07-2.03,2.55-3.55,4.45-4.55l-6.35-9.35h5.3l11.16,16.56c2.43-1.47,3.65-4.45,3.65-8.95v-7.6h4.5v7.3c0,3.17-.53,5.76-1.6,7.78s-2.55,3.54-4.45,4.58l6.75,9.96h-5.3l-11.56-17.16c-2.43,1.5-3.65,4.49-3.65,8.95v8.2h-4.5v-.02Z"/>
    <path class="st0" d="M61.24,191.61v-29.61h4.5v29.61h-4.5Z"/>
    <path class="st0" d="M70.59,174.25c.33-1.23.65-2.58.95-4.05s.58-2.91.85-4.33c.27-1.42.48-2.71.65-3.88h4.7l.35.55c-.47,1.77-1.1,3.72-1.9,5.85s-1.6,4.08-2.4,5.85h-3.2Z"/>
    <path class="st0" d="M80.35,191.61v-4.15h17.71l-17.41-25.46h5.3l10.1,15.46c2.67-1.4,4-4.45,4-9.15v-6.3h4.5v6c0,3.27-.57,5.93-1.7,7.98s-2.74,3.58-4.8,4.58l5.1,7.75v3.3h-22.81.01Z"/>
    <path class="st0" d="M123.82,180.95v-18.96h4.5v14.46l-2.25,4.5h-2.25Z"/>
    <path class="st0" d="M132.42,174.25c.33-1.23.65-2.58.95-4.05s.58-2.91.85-4.33c.27-1.42.48-2.71.65-3.88h4.7l.35.55c-.47,1.77-1.1,3.72-1.9,5.85s-1.6,4.08-2.4,5.85h-3.2Z"/>
    <path class="st0" d="M142.18,191.61v-4.15h17.71l-17.41-25.46h5.3l10.1,15.46c2.67-1.4,4-4.45,4-9.15v-6.3h4.5v6c0,3.27-.57,5.93-1.7,7.98s-2.74,3.58-4.8,4.58l5.1,7.75v3.3h-22.81.01Z"/>
    <path class="st0" d="M185.65,180.95v-18.96h4.5v14.46l-2.25,4.5h-2.25Z"/>
    <path class="st0" d="M196.45,191.61v-7.9c0-3.17.53-5.77,1.6-7.8,1.07-2.03,2.55-3.55,4.45-4.55l-6.35-9.35h5.3l11.16,16.56c2.43-1.47,3.65-4.45,3.65-8.95v-7.6h4.5v7.3c0,3.17-.53,5.76-1.6,7.78-1.07,2.02-2.55,3.54-4.45,4.58l6.75,9.96h-5.3l-11.56-17.16c-2.43,1.5-3.65,4.49-3.65,8.95v8.2h-4.5v-.02Z"/>
    <path class="st0" d="M241.23,192.26c-2.77,0-5.16-.51-7.18-1.53s-3.58-2.66-4.68-4.93-1.65-5.27-1.65-9v-14.81h4.5v14.81c0,3.57.73,6.39,2.18,8.45,1.45,2.07,3.76,3.1,6.93,3.1s5.44-1.03,6.9-3.1c1.47-2.07,2.2-4.88,2.2-8.45,0-1.3-.02-2.6-.08-3.9-.05-1.3-.22-2.49-.5-3.58-.28-1.08-.75-1.96-1.4-2.63s-1.58-1-2.78-1c-.87,0-1.83.15-2.9.45s-2.02.68-2.85,1.15v-4.3c.63-.3,1.49-.62,2.58-.98,1.08-.35,2.31-.53,3.68-.53,2.07,0,3.7.39,4.9,1.18,1.2.78,2.09,1.88,2.68,3.28.58,1.4.97,3.03,1.15,4.88.18,1.85.28,3.84.28,5.98,0,4.94-1.26,8.75-3.78,11.43-2.52,2.69-5.91,4.03-10.18,4.03Z"/>
    <path class="st0" d="M84.63,223.09h3.42v4.76h-3.42v5.97h-6.03v-5.97h-12.27v-4.27l12.61-18.65h5.69v18.16h0ZM78.6,223.09v-4.9c.01-.65.05-1.77.1-3.38.05-1.61.11-2.57.16-2.88h-.16c-.54,1.19-1.13,2.24-1.76,3.16l-5.3,8h6.96Z"/>
    <path class="st0" d="M100.27,234.22c-6.75,0-10.13-5-10.13-14.99,0-4.98.81-8.68,2.44-11.12,1.63-2.42,4.14-3.63,7.53-3.63s5.94,1.26,7.66,3.79c1.72,2.54,2.58,6.29,2.58,11.23s-.83,8.64-2.5,11.07-4.2,3.64-7.58,3.64h0ZM100.15,209.42c-1.43,0-2.44.78-3.05,2.33s-.92,4.1-.93,7.64c.01,3.54.32,6.07.93,7.6s1.63,2.29,3.07,2.29c1.44-.01,2.48-.8,3.11-2.35s.95-4.09.95-7.62-.32-6.05-.95-7.58c-.66-1.54-1.7-2.31-3.13-2.31Z"/>
    <path class="st0" d="M125.53,234.32v-4.8c1.3-.47,2.48-1.06,3.55-1.78,1.07-.72,2-1.54,2.8-2.48,2.17-2.53,3.25-5.38,3.25-8.55v-5.15c0-1.17-.24-1.99-.73-2.48-.48-.48-1.21-.73-2.18-.73h-4.8v-4.15h6.1c1.77,0,3.22.52,4.35,1.55,1.13,1.03,1.7,2.78,1.7,5.25v13.86l1.05,8.95h-3.7l-1.4-8.2h-.2c-.9,1.63-1.93,3.03-3.1,4.18-1.17,1.15-2.33,2.09-3.5,2.83-1.17.73-2.24,1.3-3.2,1.7h.01Z"/>
    <path class="st0" d="M143.64,233.82v-4.15h9.85v-18.11c0-1.17-.24-1.99-.73-2.48-.48-.48-1.21-.73-2.18-.73h-5.3v-4.15h6.6c1.77,0,3.23.52,4.38,1.55,1.15,1.03,1.73,2.78,1.73,5.25v22.81h-14.36,0Z"/>
    <path class="st0" d="M164.8,233.82v-7.9c0-3.17.53-5.77,1.6-7.8,1.07-2.03,2.55-3.55,4.45-4.55l-6.35-9.35h5.3l11.16,16.56c2.43-1.47,3.65-4.45,3.65-8.95v-7.6h4.5v7.3c0,3.17-.53,5.76-1.6,7.78-1.07,2.02-2.55,3.54-4.45,4.58l6.75,9.96h-5.3l-11.56-17.16c-2.43,1.5-3.65,4.49-3.65,8.95v8.2h-4.5v-.02Z"/>
    <path class="st0" d="M196.07,223.16v-18.96h4.5v14.46l-2.25,4.5h-2.25Z"/>
  </g>
</svg>