<?xml version="1.0" encoding="UTF-8"?>
<svg id="Layer_1" xmlns="http://www.w3.org/2000/svg" version="1.1" xmlns:xlink="http://www.w3.org/1999/xlink" viewBox="0 0 268.17 260.74">
  <!-- Generator: Adobe Illustrator 29.4.0, SVG Export Plug-In . SVG Version: 2.1.0 Build 152)  -->
  <defs>
    <style>
      .st0 {
        fill: #314152;
      }

      .st1 {
        fill: url(#linear-gradient);
      }
    </style>
    <linearGradient id="linear-gradient" x1="134.09" y1="6.45" x2="134.09" y2="254.29" gradientUnits="userSpaceOnUse">
      <stop offset=".1" stop-color="#f6f6f6"/>
      <stop offset=".31" stop-color="#f0f3f3"/>
      <stop offset=".57" stop-color="#e1ecec"/>
      <stop offset=".86" stop-color="#c9e1e0"/>
      <stop offset="1" stop-color="#badad9"/>
    </linearGradient>
  </defs>
  <rect class="st1" x="5.48" y="6.45" width="257.22" height="247.83" rx="32.48" ry="32.48"/>
  <g>
    <path class="st0" d="M101.85,44.82c.07,1.09.1.74-.66.86-2.36.35-4.79.52-7.17.45-.9.82,5.06,5.97,5.65,6.74l-6.52-.65c.59,2.63,3.22,3.77,4.78,5.65-1.47.42-3.54-.59-4.79-.26-.78.21-4.01,2.81-4.79,3.52-9.93,9.12-13.87,29.21,1.73,34.82.41.15,1.41.58,1.32-.23-12.17-5.09-13.88-19.51-6.27-29.54,1.17-1.54,5.81-5.55,7.54-5.93.74-.16,3.65,1.47,3.95,2.41-9.85,1.26-12.69,16.19-5.43,22.18l.43-2.6c3.48,1.99,8.36,3.45,11.5,5.9.35.27,2.27,1.9,1.77,2.36-1.26-.2-2.41-.71-3.7-.86-.47-.06-2.4-.35-2.38.42,5.4,2.63,11.05,5.39,15.22,9.79l-6.96-1.09,9.56,10.22c.18.91-.41.72-1.05.62-2.51-.39-4.11-2.3-6.77-.4-.48.67,1.82,2.06,2.3,2.26,7.96,3.28,15.67-7.23,19.67-12.7-.25,3.27-1.31,6.47-2.11,9.64-.07.29-.75,1.63.15,1.02,5.61-6.05,6.7-14.7,12.17-20.66.19,1.13-.34,2.19-.43,3.27-.04.48-.32,1.62.43,1.51,4.35-12.18,15.28-22.49,28.27-24.79.1-.62-.76-.59-1.21-.74-1.98-.62-4.74-.46-6.18-1.87,7.35-1.91,15.36-1.96,22.61.43.73-.75-4.1-4.91-5.21-4.79-.12-.71.59-.42,1.08-.43,4.82-.18,9.23,2.6,13.04,5.23l5.88,5.64c-.9-3.08-1.59-6.24-3.48-8.91-.09-.29.38-.32.64-.21,1.06.43,4.8,4.15,5.67,5.21,3.97,4.84,6.48,11.56,6.74,17.84.69-.43,1.4-2.19,1.62-2.95.53-1.89.62-3.84.99-5.75,1.35,1.09,2.26,4.28,2.49,5.98,1.02,7.51-.87,15.02-3.8,21.85.9.91,5.33-4.46,5.88-5.21.91-.18.72.41.62,1.05-1.19,7.54-8.34,17.12-15.63,19.83.23.91.59.63,1.21.59,1.82-.1,4.14-.62,5.75-1.47,1,1.24-5.75,5.48-6.8,6.03-9.53,4.97-20.64,5.15-31.04,3.55,1.63,3.39-.61,7.52-4.35,7.17,4.18-4.19-.59-7.74-5.22-5.66-2.35,1.06-6.76,5.88-6.5,8.65.13,1.38,1.28,2.13,1.07,3.31-4.19-3.42-5.73-6.16-1.96-10.87l-5.22,3.69-1.74,4.57c-2.96-2.51-3.66-6.72.04-8.88,1.33-.78,3.46-.62,4.32-1.99l-3.21-.42-4.61,1.95c.7-4.32,2.81-7.21,7.48-5.75,2.9.9,3.59,3.18,6.64.74,2.5-1.99,4.14-6.82,3.7-10-4.72,1.58-11.08,2.34-15.55-.31-.75-.44-.33-1.22-1.18-.99-5.31,5.26-11.48,10.82-18.93,12.61l5.22,3.05c.88,1.19-4.88,3.03-5.66,3.25-1.67.48-5.49.8-6.52,1.31-.35.17-3.26,3.86-4.39,4.75-4,3.17-9.31,3.34-11.06,8.52-1.21-1.92-.78-3.99.65-5.65-3.1-.42-6.25.77-7.17,3.91-1.74-1.79.82-5.22,2.37-6.32,1.76-1.25,4.54-1.59,6.53-2.6,2.65-1.34,5.15-3.65,6.53-6.29-7.44.4-15.43-3.69-17.85-11.07-1.44-4.38-.21-7.99-2.84-12.38-3.71-6.19-10.62-6.08-15.2-10.46-2.2-2.1-4.24-5.76-4.99-8.71-.65.2-.81,2.25-.86,2.83-.13,1.65.08,3.34,0,5-3.82-4.93-4.17-12.65-3.04-18.7-1-.26-.72.19-1,.55-1.23,1.57-1.92,3.52-3.14,5.1-.69-3.41.37-7.3,1.74-10.44.55-1.26,5.8-8.75,5.43-9.13-1.25.81-2.74,1.14-4.05,1.82-.68.35-3.04,2.69-2.92,1,.16-2.24,5.12-7.65,6.97-9.13,2.73-2.19,6.25-3.18,8.7-5.66.18-.98-.43-.6-1.08-.65-2.86-.21-5.66.25-8.49.43-.74-.66,3.25-3.12,3.77-3.4,3.82-2.07,8.43-2.91,12.75-3.12l-4.93-2.67-2.46-2.1c4.98.56,10.44.32,15.32,1.42,3.01.68,5.55,2.72,8.6,2.93ZM163.17,125.28c3.17-.36,5.76,1.05,8.93.89,17.72-.87,34.04-25.74,19.29-39.77-12.83-12.21-32.41.74-38.23,14.08l10.87-1.3-3.04,4.34c1.53.1,3.06.75,4.57.87,2.58.21,5.11-.3,7.65-.18,2.95,8.92-5.17,14.91-10.05,21.06Z"/>
    <path class="st0" d="M104.24,64.39c-1.83-.26-5.05-2.04-6.31-3.48,2.72.09,5.38-.88,7.83-1.96-2.46-1.45-5.85-1.36-7.83-3.69,1.89-.35,4.33-.59,5.97-1.64.44-.28.77.03.55-.97l-7.83-5.22c3.1.18,6.74.2,8.7-2.61-10.75-2.7-21.34-8.99-27.75-18.14-1.75-2.49-3.15-4.86-3.56-7.97,3.81,3.2,6.9,7.18,10.91,10.18,1.78,1.33,7.93,5.34,9.76,5.9.22.07.71.12.64-.21-1.76-1.2-7.54-12.14-6.52-13.27.76-.15,1.07.39,1.53.86,3.65,3.77,7.63,11.27,13.05,13.48.2.08.71.11.64-.21-1.78-2.16-3.39-7.52-2.28-10.12.26-.62.11-.66.97-.54,1.8,5.35,4.56,10.67,9.36,13.91.84-.4-.91-2.6.42-2.17.82.26,1.83,1.18,2.85,1.5,1.94.62,4,.88,5.97,1.42,1.06.29,2.52,1.25,3.05,1.35,1.02.2,1.62-1.09,2.7-.8l2.53,5.97c.8,1.04-1.11,3.36-.36,3.82,1.25.77,4.71.77,6.2.53,3.2-.5,5.78-4.09,8.99-2.24,2.06,1.19,2.39,3.64,2.22,5.83.11.15,1.9-1.25,1.72.2-.34,2.78-2.1,6.57-4.12,8.5l.24-2.39-.72-1.07-4.08,2.15v-3.91s-4.78,2.61-4.78,2.61l.86-3.91c-3.09.63-5.23,1.47-8.5,1.32-2.41-.11-8.14-2.02-9.54-1.77-1.26.22-1.57,1.99-2.4,2.85,4.35.69,8.79,1.12,11.97,4.55.8.87,2.79,4.63,3.52,4.76l5.82-2.57-3.04,4.34,5.65-2.17c.12,5.12-3.12,9.37-7.17,12.18l1.09-3.48c-2.94,1.05-5.52,1.63-8.7,1.3l3.91-3.04-9.13-2.4c3.54-.23,8.81-2.65,3.05-5.22-5.1-2.27-8.88.51-13.37,1.42-1.34.27-2.75-.19-4.03.54l.81-1.13,5.71-3.22c-2.25-.22-5,.31-7.18,0ZM126.63,46.56c-2.36.17-4.48-.04-6.52-1.31-.53.65,2.37,4.37,3.32,4.72,1.29.25,3.73-2.93,3.2-3.41ZM144.46,53.08c-.16-2.67-3.63-3.64-5.21-1.52l5.21,1.52Z"/>
    <path class="st0" d="M69.22,114.41l.23-8.27c2.76.9,6.72,3.63,5.67,6.98-.41,1.3-3.7,4.62-3.64,5.43,3.88,3.54,8.6,4.12,13.51,2.28,3.26-1.22,3.81-2.07,5.5-4.92.23-.39-.23-.86.91-.63.05,2.62.79,5.17,1.8,7.55.68,1.6,3.09,4.46,2.35,5.94-.93,1.84-8.32,2.15-10.24,1.31l4.14,3.47c.41.24-.32.84-.45.87-.29.07-5.33-.38-6.04-.47-3.69-.52-2.28-2.53-3.4-4.86-1.26-2.63-6.34-2.38-8.6-4.23-.93,2.13.32,4.9-1.52,6.53-2.34,2.08-6.45,0-8.06-2.18,4.15.64,6.29-1.12,5.62-5.41s-9.13-8.21-12.17-4.4c-.46.57-.1,1.6-.84,1.54-2.19-8.27,4.08-11.6,9.99-5.65-1.04-3.92-4.11-8.56-8.26-4.78.43-3.34,4.72-6.03,7.85-5.02,2.94.94,3.46,7.06,5.63,8.94Z"/>
  </g>
  <g>
    <path class="st0" d="M18.17,203.86v-34.27c0-1.17-.25-1.99-.75-2.48-.5-.48-1.22-.73-2.15-.73h-2.3v-4.15h3.6c1.73,0,3.18.52,4.35,1.55,1.17,1.03,1.75,2.78,1.75,5.25v34.82h-4.5Z"/>
    <path class="st0" d="M29.48,191.85v-7.9c0-3.17.53-5.77,1.6-7.8,1.07-2.03,2.55-3.55,4.45-4.55l-6.35-9.35h5.3l11.16,16.56c2.43-1.47,3.65-4.45,3.65-8.95v-7.6h4.5v7.3c0,3.17-.53,5.76-1.6,7.78s-2.55,3.54-4.45,4.58l6.75,9.96h-5.3l-11.56-17.16c-2.44,1.5-3.65,4.49-3.65,8.95v8.2h-4.5v-.02Z"/>
    <path class="st0" d="M61.24,191.85v-29.61h4.5v29.61h-4.5Z"/>
    <path class="st0" d="M70.6,174.49c.33-1.23.65-2.58.95-4.05s.58-2.91.85-4.33c.27-1.42.48-2.71.65-3.88h4.7l.35.55c-.47,1.77-1.1,3.72-1.9,5.85s-1.6,4.08-2.4,5.85h-3.2,0Z"/>
    <path class="st0" d="M80.35,191.85v-4.15h17.71l-17.41-25.46h5.3l10.1,15.46c2.67-1.4,4-4.45,4-9.15v-6.3h4.5v6c0,3.27-.57,5.93-1.7,7.98s-2.73,3.58-4.8,4.58l5.1,7.75v3.3h-22.81,0Z"/>
    <path class="st0" d="M123.82,181.2v-18.96h4.5v14.46l-2.25,4.5h-2.25Z"/>
    <path class="st0" d="M132.43,174.49c.33-1.23.65-2.58.95-4.05s.58-2.91.85-4.33c.27-1.42.48-2.71.65-3.88h4.7l.35.55c-.47,1.77-1.1,3.72-1.9,5.85-.8,2.13-1.6,4.08-2.4,5.85h-3.2Z"/>
    <path class="st0" d="M168.15,216.7c.33-1.23.65-2.58.95-4.05s.58-2.91.85-4.33c.27-1.42.48-2.71.65-3.88h4.7l.35.55c-.47,1.77-1.1,3.72-1.9,5.85-.8,2.13-1.6,4.08-2.4,5.85h-3.2Z"/>
    <path class="st0" d="M142.18,191.85v-4.15h17.71l-17.41-25.46h5.3l10.1,15.46c2.67-1.4,4-4.45,4-9.15v-6.3h4.5v6c0,3.27-.57,5.93-1.7,7.98-1.13,2.05-2.73,3.58-4.8,4.58l5.1,7.75v3.3h-22.81,0Z"/>
    <path class="st0" d="M185.65,181.2v-18.96h4.5v14.46l-2.25,4.5h-2.25Z"/>
    <path class="st0" d="M196.46,191.85v-7.9c0-3.17.53-5.77,1.6-7.8,1.07-2.03,2.55-3.55,4.45-4.55l-6.35-9.35h5.3l11.16,16.56c2.43-1.47,3.65-4.45,3.65-8.95v-7.6h4.5v7.3c0,3.17-.53,5.76-1.6,7.78s-2.55,3.54-4.45,4.58l6.75,9.96h-5.3l-11.56-17.16c-2.44,1.5-3.65,4.49-3.65,8.95v8.2h-4.5v-.02Z"/>
    <path class="st0" d="M241.23,192.5c-2.77,0-5.16-.51-7.18-1.53-2.02-1.02-3.58-2.66-4.68-4.93-1.1-2.27-1.65-5.27-1.65-9v-14.81h4.5v14.81c0,3.57.73,6.39,2.18,8.45,1.45,2.07,3.76,3.1,6.93,3.1s5.44-1.03,6.9-3.1c1.47-2.07,2.2-4.88,2.2-8.45,0-1.3-.02-2.6-.07-3.9-.05-1.3-.22-2.49-.5-3.58-.28-1.08-.75-1.96-1.4-2.63s-1.58-1-2.78-1c-.87,0-1.83.15-2.9.45-1.07.3-2.02.68-2.85,1.15v-4.3c.63-.3,1.49-.62,2.58-.98,1.08-.35,2.31-.53,3.68-.53,2.07,0,3.7.39,4.9,1.18,1.2.78,2.09,1.88,2.68,3.28.58,1.4.97,3.03,1.15,4.88s.27,3.84.27,5.98c0,4.94-1.26,8.75-3.78,11.43-2.52,2.69-5.91,4.03-10.18,4.03h0Z"/>
    <path class="st0" d="M67.27,211.84c0-2.1.89-3.8,2.67-5.1,1.76-1.3,4.08-1.95,6.96-1.95,2.87-.01,5.18.61,6.94,1.88,1.75,1.27,2.63,2.97,2.65,5.11,0,1.5-.44,2.83-1.3,3.98-.87,1.15-2.24,2.17-4.12,3.07,2.21,1.12,3.81,2.3,4.81,3.55s1.5,2.62,1.5,4.12c0,2.41-.96,4.34-2.88,5.79-1.92,1.45-4.48,2.17-7.68,2.17s-5.74-.68-7.61-2.04-2.82-3.28-2.82-5.77c0-1.65.47-3.1,1.4-4.35s2.38-2.35,4.36-3.32c-3.25-1.91-4.87-4.29-4.87-7.14h0ZM72.41,226.3c0,1.12.39,1.99,1.18,2.61s1.89.94,3.31.94c1.42-.01,2.51-.33,3.27-.96.76-.62,1.15-1.42,1.16-2.4-.01-.98-.39-1.84-1.13-2.59s-1.95-1.57-3.62-2.44c-2.79,1.26-4.18,2.88-4.18,4.84h.01ZM76.85,209.41c-1.08.01-1.94.28-2.59.8s-.97,1.2-.97,2.03.26,1.57.77,2.21c.55.61,1.49,1.24,2.83,1.87,1.29-.58,2.21-1.19,2.75-1.81s.81-1.37.81-2.22-.34-1.55-1.01-2.07c-.67-.52-1.54-.79-2.59-.8h0Z"/>
    <path class="st0" d="M99.06,204.76c2.99-.01,5.36.59,7.1,1.8s2.61,2.81,2.6,4.8c0,1.99-.55,3.62-1.64,4.88s-2.63,2.13-4.6,2.61v.12c2.33.29,4.05,1,5.15,2.13s1.65,2.64,1.65,4.54c0,2.77-.96,4.95-2.88,6.53-1.94,1.53-4.62,2.29-8.06,2.29s-6.36-.52-8.77-1.56v-5.21c2.53,1.27,4.95,1.91,7.27,1.91,2.32-.01,3.95-.36,4.9-1.04s1.42-1.73,1.42-3.15-.55-2.42-1.64-3-2.86-.86-5.3-.85h-2.19v-4.6h2.23c2.27,0,3.92-.3,4.93-.91s1.52-1.63,1.52-3.06c0-2.19-1.37-3.28-4.11-3.28-1.95,0-4,.71-6.16,2.11l-2.83-4.21c2.63-1.9,5.78-2.84,9.42-2.84h-.01Z"/>
    <path class="st0" d="M130.36,246.07v-34.27c0-1.17-.25-1.99-.75-2.48-.5-.48-1.22-.73-2.15-.73h-2.3v-4.15h3.6c1.73,0,3.18.52,4.35,1.55,1.17,1.03,1.75,2.78,1.75,5.25v34.82h-4.5Z"/>
    <path class="st0" d="M141.67,234.06v-7.9c0-3.17.53-5.77,1.6-7.8,1.07-2.03,2.55-3.55,4.45-4.55l-6.35-9.35h5.3l11.16,16.56c2.43-1.47,3.65-4.45,3.65-8.95v-7.6h4.5v7.3c0,3.17-.53,5.76-1.6,7.78s-2.55,3.54-4.45,4.58l6.75,9.96h-5.3l-11.56-17.16c-2.44,1.5-3.65,4.49-3.65,8.95v8.2h-4.5v-.02Z"/>
    <path class="st0" d="M177.98,234.06v-4.15h17.71l-17.41-25.46h5.3l10.1,15.46c2.67-1.4,4-4.45,4-9.15v-6.3h4.5v6c0,3.27-.57,5.93-1.7,7.98-1.13,2.05-2.73,3.58-4.8,4.58l5.1,7.75v3.3h-22.81,0Z"/>
  </g>
</svg>