<?xml version="1.0" encoding="UTF-8"?>
<svg id="Layer_1" xmlns="http://www.w3.org/2000/svg" version="1.1" xmlns:xlink="http://www.w3.org/1999/xlink" viewBox="0 0 268.17 260.74">
  <!-- Generator: Adobe Illustrator 29.4.0, SVG Export Plug-In . SVG Version: 2.1.0 Build 152)  -->
  <defs>
    <style>
      .st0 {
        fill: #314152;
      }

      .st1 {
        fill: url(#linear-gradient);
      }
    </style>
    <linearGradient id="linear-gradient" x1="134.09" y1="6.45" x2="134.09" y2="254.29" gradientUnits="userSpaceOnUse">
      <stop offset=".1" stop-color="#f6f6f6"/>
      <stop offset=".32" stop-color="#f1f3f3"/>
      <stop offset=".57" stop-color="#e3eded"/>
      <stop offset=".83" stop-color="#cde2e2"/>
      <stop offset="1" stop-color="#badad9"/>
    </linearGradient>
  </defs>
  <rect class="st1" x="5.48" y="6.45" width="257.22" height="247.83" rx="32.48" ry="32.48"/>
  <path class="st0" d="M146.22,63.99c6.22-6.49,13.64-11.68,22.45-14.03,2.3,7.97,4.11,16.09,3.61,24.46,6.6-2.86,13.25-5.16,20.44-6.01.48,10.21-.73,20.54-5.32,29.76l-4.69,7.93c4.07-.86,9.18.04,13.3.93,3.62.78,7.27,1.96,10.34,4.08-8.3,11.86-20.83,20.12-35.28,22.26l6.2,4.42,3.41,3.4c-10.26,7.64-24.04,6.17-35.26,1.41-1.7,5.25-9.57,8.13-14.64,8.43-5.82.34-15-2.22-17.49-8.03-11.44,4.62-25.59,5.62-36.06-1.81l10.42-7.82c-14.68-1.63-26.93-10.8-35.68-22.26,7.05-4.26,15.95-5.21,24.05-5.42-8.38-10.37-10.95-24.19-10.42-37.29,7.18.98,14.39,2.63,20.84,6.01-.29-8.34,1.68-16.45,3.62-24.46,8.78,2.48,16.21,7.5,22.45,14.03,3.17-10.15,9.33-19.22,17.05-26.46,7.56,7.28,13.48,16.41,16.65,26.46ZM129.57,45.16c-20.16,20.66-20.87,58.77-.4,79.38,20.79-20.68,19.84-58.04.4-79.38ZM109.72,92.86c-1.69-7.65-.5-15.36.74-22.96-4.74-5.5-10.14-10.06-16.77-13.12-1.76,6.75-2.1,13.66-1.55,20.59,5.1,3.32,9.62,7.05,13.78,11.49,1,1.07,1.85,2.44,2.89,3.5.22.23-.02.79.92.51ZM149.02,93.67c5-6.3,11.1-11.55,17.57-16.31,1.09-6.89.26-13.9-1.54-20.58-6.68,2.83-12.03,7.74-16.76,13.12,1.09,7.92,2.36,15.81.73,23.77ZM122.55,124.94c-8.52-8.67-10.47-21.42-18.24-30.48-8.02-9.35-21.32-17.56-33.49-19.64.46,6.32,1.49,12.46,3.94,18.31,7.59,18.16,28.37,30.94,47.79,31.8ZM187.51,74.82c-14.88,3.04-30.07,13.43-37.86,26.5-2.41,4.03-3.96,8.54-6.18,12.67l-7.28,10.96c3.62-.5,7.28-.84,10.91-1.72,22.2-5.4,40.77-24.76,40.42-48.4ZM107.71,127.36c-6.58-1.82-12.99-4.97-18.57-8.9-2.97-2.09-5.43-4.81-8.58-6.66-6.7-.98-13.2-.37-19.77,1.12-.42.45,1.61,2.24,2,2.61,10.94,10.43,23.26,13.95,38.29,13.02l6.62-1.19ZM197.94,112.52c-6.7-1.3-13.39-1.54-20.17-.72-3.36,3.26-7,6.19-10.99,8.66l-16.16,7.29c11.55,1.46,22.78,1.65,33.43-3.65,4.03-2.01,10.55-6.81,13.28-10.37.31-.4.78-.51.6-1.2ZM128.86,130.64c-1.57.22-8.05,4.74-9.11,6.14-4.27,5.7,4.61,8.82,9.01,9.03,6.31.31,17.34-4.82,9.24-11.24-1.54-1.22-7.33-4.18-9.14-3.93ZM117.74,131.37l-22.86,3.4-8.41,5.42c3.76.67,7.59,1.46,11.44,1.22,2.63-.16,12.73-2.38,14.6-3.85.69-.54.96-1.96,1.63-2.78,1.05-1.29,2.48-2.2,3.61-3.41ZM171.88,140.18c-8.05-8.48-20.97-7.25-31.68-8.41.84,1.13,2.21,1.55,3.22,2.59.7.71,1.37,2.31,1.87,2.64,1.1.73,5.74,2.24,7.25,2.67,6.54,1.88,12.71,2.39,19.33.51Z"/>
  <g>
    <path class="st0" d="M71.01,213.95v-4.8c1.3-.47,2.48-1.06,3.55-1.78,1.07-.72,2-1.54,2.8-2.48,2.17-2.53,3.25-5.39,3.25-8.55v-5.15c0-1.17-.24-1.99-.73-2.48s-1.21-.73-2.18-.73h-4.8v-4.15h6.1c1.77,0,3.22.52,4.35,1.55s1.7,2.79,1.7,5.25v13.86l1.05,8.95h-3.7l-1.4-8.2h-.2c-.9,1.63-1.93,3.03-3.1,4.18s-2.33,2.09-3.5,2.83c-1.17.73-2.24,1.3-3.2,1.7h.01Z"/>
    <path class="st0" d="M89.12,213.45v-4.15h9.85v-18.11c0-1.17-.24-1.99-.73-2.48s-1.21-.73-2.18-.73h-5.3v-4.15h6.6c1.77,0,3.23.52,4.38,1.55s1.73,2.79,1.73,5.25v22.81h-14.36,0Z"/>
    <path class="st0" d="M111.73,213.45v-29.61h4.5v29.61h-4.5Z"/>
    <path class="st0" d="M121.23,213.95v-4.8c1.3-.47,2.48-1.06,3.55-1.78s2-1.54,2.8-2.48c2.17-2.53,3.25-5.39,3.25-8.55v-5.15c0-1.17-.24-1.99-.73-2.48-.48-.48-1.21-.73-2.18-.73h-4.8v-4.15h6.1c1.77,0,3.22.52,4.35,1.55s1.7,2.79,1.7,5.25v13.86l1.05,8.95h-3.7l-1.4-8.2h-.2c-.9,1.63-1.93,3.03-3.1,4.18s-2.33,2.09-3.5,2.83c-1.17.73-2.24,1.3-3.2,1.7h.01Z"/>
    <path class="st0" d="M154.6,202.8v-18.96h4.5v14.46l-2.25,4.5h-2.25Z"/>
    <path class="st0" d="M163.2,196.1c.33-1.23.65-2.58.95-4.05s.58-2.91.85-4.33c.27-1.42.48-2.71.65-3.88h4.7l.35.55c-.47,1.77-1.1,3.72-1.9,5.85-.8,2.13-1.6,4.09-2.4,5.85h-3.2,0Z"/>
    <path class="st0" d="M172.96,213.45v-4.15h17.71l-17.41-25.46h5.3l10.1,15.46c2.67-1.4,4-4.45,4-9.15v-6.3h4.5v6c0,3.27-.57,5.93-1.7,7.98-1.13,2.05-2.74,3.58-4.8,4.58l5.1,7.75v3.3h-22.81.01Z"/>
  </g>
</svg>