<?xml version="1.0" encoding="UTF-8"?>
<svg id="Layer_1" xmlns="http://www.w3.org/2000/svg" version="1.1" xmlns:xlink="http://www.w3.org/1999/xlink" viewBox="0 0 268.17 260.74">
  <!-- Generator: Adobe Illustrator 29.4.0, SVG Export Plug-In . SVG Version: 2.1.0 Build 152)  -->
  <defs>
    <style>
      .st0 {
        fill: #314152;
      }

      .st1 {
        fill: url(#linear-gradient);
      }
    </style>
    <linearGradient id="linear-gradient" x1="134.09" y1="6.45" x2="134.09" y2="254.29" gradientUnits="userSpaceOnUse">
      <stop offset=".1" stop-color="#f6f6f6"/>
      <stop offset=".31" stop-color="#f0f3f3"/>
      <stop offset=".58" stop-color="#e1ecec"/>
      <stop offset=".87" stop-color="#c8e0e0"/>
      <stop offset="1" stop-color="#bbdada"/>
    </linearGradient>
  </defs>
  <rect class="st1" x="5.48" y="6.45" width="257.22" height="247.83" rx="32.48" ry="32.48"/>
  <g>
    <g>
      <path class="st0" d="M172.89,86.97c0,22.2-18,40.21-40.21,40.21s-40.21-18-40.21-40.21,18-40.21,40.21-40.21,40.21,18,40.21,40.21ZM142.09,51.39c5.33,1.58,7.34,8.6,8.3,13.55,1.7,8.76-2.24,17.84-10.64,21.55-7.38,3.26-14.11.14-20.26,7.37-9.35,10.97-3.58,27.43,10.84,29.82,26.39,4.38,45.94-25.87,36.75-49.81-3.75-9.77-13.64-19.19-23.47-22.74-.47-.17-1.63-.66-1.52.27ZM138.7,69.34c0-3.06-2.48-5.55-5.55-5.55s-5.55,2.48-5.55,5.55,2.48,5.55,5.55,5.55,5.55-2.48,5.55-5.55Z"/>
      <circle class="st0" cx="132.96" cy="105.45" r="5.43"/>
    </g>
    <g>
      <g>
        <rect class="st0" x="117.48" y="30.51" width="30.59" height="1.86"/>
        <rect class="st0" x="117.48" y="34.64" width="30.59" height="1.86"/>
        <rect class="st0" x="117.48" y="38.77" width="30.59" height="1.86"/>
      </g>
      <g>
        <rect class="st0" x="183.16" y="70.88" width="1.86" height="30.59"/>
        <rect class="st0" x="187.29" y="70.88" width="1.86" height="10.27"/>
        <rect class="st0" x="187.29" y="91.19" width="1.86" height="10.27"/>
        <rect class="st0" x="179.03" y="70.88" width="1.86" height="10.27"/>
        <rect class="st0" x="179.03" y="91.19" width="1.86" height="10.27"/>
      </g>
      <g>
        <rect class="st0" x="86.25" y="70.7" width="1.86" height="30.59"/>
        <rect class="st0" x="78" y="70.7" width="1.86" height="30.59"/>
        <rect class="st0" x="82.12" y="70.7" width="1.86" height="10.27"/>
        <rect class="st0" x="82.12" y="91.01" width="1.86" height="10.27"/>
      </g>
      <g>
        <rect class="st0" x="171.64" y="32.82" width="1.86" height="30.59" transform="translate(16.52 136.11) rotate(-45)"/>
        <rect class="st0" x="168.72" y="35.74" width="1.86" height="30.59" transform="translate(13.6 134.91) rotate(-45)"/>
        <rect class="st0" x="158.61" y="41.63" width="1.86" height="10.27" transform="translate(13.66 126.51) rotate(-45)"/>
        <rect class="st0" x="172.98" y="56" width="1.86" height="10.27" transform="translate(7.71 140.88) rotate(-45)"/>
      </g>
      <g>
        <rect class="st0" x="84.21" y="52.64" width="30.59" height="1.86" transform="translate(-8.74 86.05) rotate(-45)"/>
        <rect class="st0" x="81.29" y="49.72" width="30.59" height="1.86" transform="translate(-7.53 83.13) rotate(-45)"/>
        <rect class="st0" x="95.71" y="39.62" width="10.27" height="1.86" transform="translate(.86 83.19) rotate(-45)"/>
        <rect class="st0" x="81.34" y="53.99" width="10.27" height="1.86" transform="translate(-13.5 77.24) rotate(-45)"/>
      </g>
      <g>
        <rect class="st0" x="116.99" y="131.79" width="30.59" height="1.86"/>
        <rect class="st0" x="116.99" y="135.92" width="30.59" height="1.86"/>
        <rect class="st0" x="116.99" y="140.04" width="30.59" height="1.86"/>
      </g>
      <g>
        <rect class="st0" x="151.62" y="118.47" width="30.59" height="1.86" transform="translate(-35.54 153) rotate(-45)"/>
        <rect class="st0" x="160.43" y="131.49" width="10.27" height="1.86" transform="translate(-45.14 155.86) rotate(-45)"/>
        <rect class="st0" x="174.8" y="117.13" width="10.27" height="1.86" transform="translate(-30.78 161.81) rotate(-45)"/>
        <rect class="st0" x="157.51" y="128.58" width="10.27" height="1.86" transform="translate(-43.94 152.94) rotate(-45)"/>
        <rect class="st0" x="171.88" y="114.21" width="10.27" height="1.86" transform="translate(-29.57 158.89) rotate(-45)"/>
      </g>
      <g>
        <rect class="st0" x="96.91" y="104.02" width="1.86" height="30.59" transform="translate(-55.71 104.13) rotate(-45)"/>
        <rect class="st0" x="83.89" y="112.84" width="1.86" height="10.27" transform="translate(-58.57 94.53) rotate(-45)"/>
        <rect class="st0" x="98.26" y="127.2" width="1.86" height="10.27" transform="translate(-64.53 108.9) rotate(-45)"/>
        <rect class="st0" x="86.81" y="109.92" width="1.86" height="10.27" transform="translate(-55.66 95.74) rotate(-45)"/>
        <rect class="st0" x="101.18" y="124.28" width="1.86" height="10.27" transform="translate(-61.61 110.11) rotate(-45)"/>
      </g>
    </g>
  </g>
  <g>
    <path class="st0" d="M71.01,192.84v-4.8c1.3-.47,2.48-1.06,3.55-1.78s2-1.54,2.8-2.48c2.17-2.53,3.25-5.39,3.25-8.55v-5.15c0-1.17-.24-1.99-.73-2.48-.48-.48-1.21-.73-2.18-.73h-4.8v-4.15h6.1c1.77,0,3.22.52,4.35,1.55,1.13,1.03,1.7,2.79,1.7,5.25v13.86l1.05,8.95h-3.7l-1.4-8.2h-.2c-.9,1.63-1.93,3.03-3.1,4.18s-2.33,2.09-3.5,2.83c-1.17.73-2.23,1.3-3.2,1.7h.01Z"/>
    <path class="st0" d="M89.11,192.34v-4.15h9.85v-18.11c0-1.17-.24-1.99-.73-2.48-.48-.48-1.21-.73-2.18-.73h-5.3v-4.15h6.6c1.77,0,3.23.52,4.38,1.55s1.73,2.79,1.73,5.25v22.81h-14.36,0Z"/>
    <path class="st0" d="M111.73,192.34v-29.61h4.5v29.61h-4.5Z"/>
    <path class="st0" d="M121.23,192.84v-4.8c1.3-.47,2.48-1.06,3.55-1.78s2-1.54,2.8-2.48c2.17-2.53,3.25-5.39,3.25-8.55v-5.15c0-1.17-.24-1.99-.73-2.48-.48-.48-1.21-.73-2.18-.73h-4.8v-4.15h6.1c1.77,0,3.22.52,4.35,1.55s1.7,2.79,1.7,5.25v13.86l1.05,8.95h-3.7l-1.4-8.2h-.2c-.9,1.63-1.93,3.03-3.1,4.18s-2.33,2.09-3.5,2.83c-1.17.73-2.23,1.3-3.2,1.7h0Z"/>
    <path class="st0" d="M154.6,181.69v-18.96h4.5v14.46l-2.25,4.5h-2.25Z"/>
    <path class="st0" d="M163.2,174.98c.33-1.23.65-2.58.95-4.05.3-1.47.58-2.91.85-4.33.27-1.42.48-2.71.65-3.88h4.7l.35.55c-.47,1.77-1.1,3.72-1.9,5.85s-1.6,4.09-2.4,5.85h-3.2,0Z"/>
    <path class="st0" d="M172.96,192.34v-4.15h17.71l-17.41-25.46h5.3l10.1,15.46c2.67-1.4,4-4.45,4-9.15v-6.3h4.5v6c0,3.27-.57,5.93-1.7,7.98-1.13,2.05-2.73,3.58-4.8,4.58l5.1,7.75v3.3h-22.81,0Z"/>
    <path class="st0" d="M83.79,223.9v-18.96h4.5v14.46l-2.25,4.5h-2.25Z"/>
    <path class="st0" d="M94.59,234.55v-7.9c0-3.17.53-5.77,1.6-7.8s2.55-3.55,4.45-4.55l-6.35-9.35h5.3l11.16,16.56c2.43-1.47,3.65-4.45,3.65-8.95v-7.6h4.5v7.3c0,3.17-.53,5.76-1.6,7.78s-2.55,3.54-4.45,4.58l6.75,9.96h-5.3l-11.56-17.16c-2.44,1.5-3.65,4.49-3.65,8.95v8.2h-4.5v-.02Z"/>
    <path class="st0" d="M126.36,234.55v-29.61h4.5v29.61h-4.5Z"/>
    <path class="st0" d="M137.61,234.55v-4.15h11.76c3.03,0,5.25-.99,6.65-2.98,1.4-1.98,2.1-4.54,2.1-7.68,0-3.47-.83-6.11-2.5-7.93s-4.17-2.73-7.5-2.73h-6v3.85c0,1.97.41,3.42,1.23,4.35s1.96,1.4,3.43,1.4c.23,0,.5,0,.8-.02s.58-.04.85-.08v4.15c-.73.1-1.48.15-2.25.15-2.97,0-5.14-.88-6.5-2.63-1.37-1.75-2.05-4.06-2.05-6.93v-8.4h11.01c3.07,0,5.66.62,7.78,1.85,2.12,1.23,3.71,2.95,4.78,5.15,1.07,2.2,1.6,4.75,1.6,7.65s-.51,5.38-1.53,7.63-2.53,4.04-4.53,5.35c-2,1.32-4.45,1.98-7.35,1.98h-11.76l-.02.02Z"/>
    <path class="st0" d="M181.38,234.55v-19.26c0-2.33-.52-3.95-1.55-4.85s-2.47-1.35-4.3-1.35h-12.01v-4.15h12.31c3.4,0,5.93.75,7.58,2.25,1.65,1.5,2.48,3.9,2.48,7.2v20.16h-4.51Z"/>
  </g>
</svg>